<?xml version="1.0" standalone="no"?>
<!DOCTYPE svg PUBLIC "-//W3C//DTD SVG 20010904//EN"
 "http://www.w3.org/TR/2001/REC-SVG-20010904/DTD/svg10.dtd">
<svg version="1.0" xmlns="http://www.w3.org/2000/svg"
 width="900.000000pt" height="900.000000pt" viewBox="0 0 900.000000 900.000000"
 preserveAspectRatio="xMidYMid meet">

<g transform="translate(0.000000,900.000000) scale(0.100000,-0.100000)"
fill="#000000" stroke="none">
<path d="M4263 5269 c-96 -18 -179 -72 -223 -144 -41 -68 -52 -126 -59 -300
l-6 -170 -212 -1 c-117 0 -215 -3 -217 -5 -4 -3 -152 -1560 -169 -1764 l-2
-30 1124 -3 c619 -1 1128 1 1131 5 4 5 -8 121 -26 258 -36 276 -69 531 -144
1125 -28 217 -52 401 -55 408 -3 9 -55 12 -210 12 l-205 0 0 159 c0 180 -16
255 -70 330 -75 103 -227 148 -377 112 -42 -10 -64 -10 -126 3 -83 17 -92 18
-154 5z m108 -126 c-56 -92 -64 -124 -69 -310 l-4 -173 -124 0 -124 0 0 149
c0 120 4 161 20 212 23 75 64 129 117 155 38 18 191 35 206 23 5 -3 -5 -29
-22 -56z m404 38 c48 -21 98 -70 121 -119 23 -50 36 -170 31 -292 l-5 -105
-120 -3 -120 -3 -4 173 c-5 191 -18 245 -78 319 -16 21 -30 40 -30 43 0 9 64
13 115 9 28 -3 68 -13 90 -22z m-225 -73 c49 -67 60 -123 60 -295 l0 -153
-122 0 -123 0 2 142 c3 225 11 257 81 330 41 44 56 40 102 -24z m-568 -629 c2
-92 6 -114 20 -122 12 -8 21 -7 32 2 13 11 16 35 16 122 l0 109 280 0 280 0 0
-103 c0 -115 13 -152 47 -131 15 9 18 28 21 123 l3 111 199 0 c109 0 201 -3
203 -7 2 -5 -4 -89 -14 -188 -9 -99 -22 -236 -28 -305 -6 -69 -20 -219 -31
-335 -11 -115 -22 -232 -25 -260 -14 -163 -46 -496 -51 -532 l-5 -42 -740 -1
c-726 0 -739 0 -739 20 0 19 57 643 65 715 3 22 12 117 20 210 14 154 22 248
55 590 6 61 12 116 15 123 3 9 50 12 189 12 l185 0 3 -111z m1371 74 c6 -37
54 -412 157 -1230 28 -216 50 -395 50 -398 0 -3 -126 -5 -280 -5 -226 0 -280
3 -280 13 0 14 26 297 81 872 16 176 39 419 50 540 11 121 21 226 24 233 3 8
32 12 98 12 l94 0 6 -37z"/>
</g>
</svg>
