<svg viewBox="122.4821 171.2288 153.1041 261.459" width="153.1041"
     height="261.459">
<g transform="matrix(0.01643499918282032, 0, 0, -0.01643499918282032,
117.20648193359372, 438.7609558105468)" fill="#000000" stroke="none">
    <path d="M481 16233 c-7 -26 -13 -57 -14 -67 -3 -31 19 -29 33 4 10 25 18 30
46 30 32 0 33 -1 23 -27 -7 -20 -7 -28 3 -34 19 -12 29 3 35 50 l6 41 -47 0
c-43 0 -47 2 -44 22 2 14 -3 24 -13 26 -11 2 -19 -11 -28 -45z"></path>
    <path d="M655 16260 c-8 -13 3 -30 20 -30 14 0 11 -19 -17 -88 -12 -30 -11
-35 5 -46 12 -9 17 -27 17 -60 0 -33 4 -46 14 -46 8 0 17 6 19 13 4 9 8 9 15
-2 14 -20 42 -6 42 21 0 22 3 23 65 20 61 -4 65 -2 65 18 0 20 -4 22 -65 18
l-64 -3 -3 45 c-3 41 -6 45 -30 48 -42 5 -35 62 8 62 17 0 24 6 24 20 0 18 -7
20 -54 20 -30 0 -58 -4 -61 -10z m75 -170 c0 -27 -4 -50 -10 -50 -5 0 -10 23
-10 50 0 28 5 50 10 50 6 0 10 -22 10 -50z"></path>
    <path d="M780 16255 c0 -12 13 -15 55 -15 60 0 62 -3 49 -69 -6 -26 -11 -31
-35 -31 -28 0 -29 1 -23 40 5 32 4 40 -9 40 -16 0 -21 -11 -32 -72 l-6 -38 66
0 65 0 0 -44 c0 -46 -10 -56 -56 -56 -17 0 -22 -4 -18 -15 8 -19 77 -20 92 -2
6 7 14 43 18 80 6 60 5 67 -11 67 -16 0 -17 7 -11 65 l7 65 -76 0 c-60 0 -75
-3 -75 -15z"></path>
    <path d="M322 16130 l1 -130 67 0 c37 0 71 -5 78 -12 14 -14 40 6 57 45 l12
28 28 -41 c15 -22 31 -40 36 -40 21 0 16 23 -16 70 -25 37 -35 63 -35 91 0 62
-26 51 -34 -14 -7 -54 -45 -133 -53 -109 -3 7 -23 12 -54 12 -28 0 -49 5 -49
11 0 5 4 8 10 4 5 -3 17 6 26 21 l18 26 16 -23 c26 -34 43 -15 23 26 -13 27
-14 41 -5 74 6 24 6 43 1 47 -15 9 -29 -6 -29 -29 l-1 -22 -18 22 c-14 16 -21
19 -30 10 -8 -8 -11 -5 -11 11 0 20 5 22 50 22 38 0 50 4 50 15 0 12 -14 15
-69 15 l-70 0 1 -130z m62 22 c13 -25 12 -30 -5 -52 l-19 -25 0 53 c0 28 2 52
5 52 2 0 11 -13 19 -28z"></path>
    <path d="M990 16130 l0 -120 85 0 c69 0 85 3 85 15 0 12 -14 15 -65 15 l-65 0
0 35 0 35 60 0 c53 0 60 2 60 20 0 18 -7 20 -60 20 l-60 0 0 30 0 30 65 0 c58
0 65 2 65 20 0 18 -7 20 -85 20 l-85 0 0 -120z"></path>
    <path d="M1200 16155 c0 -89 2 -98 25 -120 32 -33 100 -35 139 -4 25 20 26 24
26 120 0 90 -2 100 -17 97 -15 -3 -18 -16 -19 -91 -2 -96 -11 -117 -53 -117
-51 0 -60 17 -63 115 -3 76 -6 90 -20 93 -16 3 -18 -7 -18 -93z"></path>
    <path d="M2350 16155 c0 -89 2 -98 25 -120 32 -33 100 -35 139 -4 25 20 26 24
26 120 0 90 -2 100 -17 97 -15 -3 -18 -16 -20 -92 -2 -96 -11 -116 -52 -116
-51 0 -60 17 -63 115 -3 76 -6 90 -20 93 -16 3 -18 -7 -18 -93z"></path>
    <path d="M2605 16225 c-14 -13 -25 -31 -25 -38 0 -27 35 -55 88 -72 29 -9 56
-23 59 -31 17 -45 -75 -62 -103 -19 -9 14 -23 25 -30 25 -21 0 -17 -33 6 -58
29 -30 120 -32 150 -2 42 42 15 91 -65 116 -59 19 -76 41 -48 62 21 15 63 8
79 -14 14 -18 44 -18 44 0 0 26 -50 56 -92 56 -28 0 -46 -7 -63 -25z"></path>
    <path d="M4030 16155 c0 -89 2 -98 25 -120 32 -33 100 -35 139 -4 25 20 26 24
26 120 0 90 -2 100 -17 97 -15 -3 -18 -16 -20 -92 -2 -96 -11 -116 -52 -116
-51 0 -60 17 -63 115 -3 76 -6 90 -20 93 -16 3 -18 -7 -18 -93z"></path>
    <path d="M4270 16131 c0 -114 1 -121 20 -121 17 0 20 7 20 44 0 71 19 74 71
11 34 -42 50 -54 72 -55 28 0 28 1 -32 68 l-60 67 52 53 c41 41 47 52 31 52
-11 0 -44 -25 -74 -55 l-55 -56 -5 53 c-4 40 -9 54 -22 56 -16 3 -18 -8 -18
-117z"></path>
    <path d="M5850 16156 c0 -70 -4 -97 -15 -106 -21 -17 -50 -8 -53 18 -4 27 -42
31 -42 4 0 -38 29 -62 75 -62 64 0 75 20 75 142 0 91 -1 98 -20 98 -19 0 -20
-7 -20 -94z"></path>
    <path d="M5940 16131 c0 -114 1 -121 20 -121 17 0 20 7 20 45 l0 45 44 0 c58
0 96 29 96 74 0 50 -27 68 -110 74 l-70 5 0 -122z m138 47 c3 -22 -2 -30 -23
-38 -14 -5 -37 -10 -51 -10 -21 0 -24 4 -24 41 l0 40 48 -3 c43 -3 47 -5 50
-30z"></path>
    <path d="M7417 16243 c-4 -3 -7 -57 -7 -120 0 -106 1 -113 20 -113 17 0 20 7
20 39 0 23 6 44 16 52 14 12 22 7 63 -40 36 -41 52 -52 70 -49 22 3 20 7 -34
67 l-57 64 46 46 c50 51 55 61 29 61 -10 0 -43 -26 -75 -57 l-58 -57 0 57 c0
41 -4 57 -13 57 -8 0 -17 -3 -20 -7z"></path>
    <path d="M7650 16131 c0 -114 1 -121 20 -121 17 0 20 7 20 50 0 46 2 50 24 50
46 0 76 -18 76 -44 0 -37 10 -56 30 -56 16 0 18 6 13 38 -3 20 -11 47 -19 59
-11 18 -11 23 1 33 21 18 18 64 -5 85 -13 12 -42 19 -90 23 l-70 5 0 -122z
m138 50 c5 -29 -12 -41 -60 -41 -37 0 -38 1 -38 36 l0 35 48 -3 c41 -3 47 -6
50 -27z"></path>
    <path d="M9094 16216 c-29 -29 -34 -41 -34 -80 0 -53 20 -100 49 -116 11 -5
40 -10 64 -10 38 0 49 5 71 31 14 17 26 35 26 40 0 18 -33 8 -52 -16 -24 -31
-70 -33 -98 -5 -26 26 -27 99 -2 129 24 30 79 31 103 3 18 -23 49 -30 49 -11
0 6 -13 24 -29 40 -43 43 -101 41 -147 -5z"></path>
    <path d="M9310 16130 c0 -112 1 -120 20 -120 17 0 19 8 22 73 l3 72 30 -73
c40 -96 57 -95 99 7 l31 74 3 -76 c3 -69 5 -77 22 -77 19 0 20 8 20 120 0 114
-1 120 -20 120 -16 0 -30 -20 -64 -92 l-44 -93 -16 38 c-61 140 -65 147 -85
147 -20 0 -21 -6 -21 -120z"></path>
    <path d="M565 14985 c-30 -29 -32 -45 -5 -45 11 0 20 5 20 10 0 6 11 15 25 22
19 8 28 8 40 -2 23 -19 15 -53 -14 -60 -35 -8 -37 -26 -3 -33 16 -3 32 -13 36
-22 19 -51 -63 -79 -86 -30 -12 27 -31 28 -36 2 -9 -46 87 -76 136 -41 26 18
30 75 7 94 -14 12 -14 15 0 30 59 65 -57 139 -120 75z"></path>
    <path d="M746 14964 c-13 -98 -4 -113 49 -78 44 29 89 -21 58 -65 -18 -27 -59
-27 -75 -1 -16 26 -38 26 -38 1 0 -50 99 -69 139 -27 52 55 -1 155 -69 129
-29 -11 -30 -10 -30 18 0 29 1 29 55 29 48 0 55 2 55 20 0 18 -7 20 -69 20
l-68 0 -7 -46z"></path>
    <path d="M1036 14998 c-3 -7 -7 -39 -9 -70 -6 -64 0 -69 47 -44 36 18 65 10
73 -22 8 -34 -8 -56 -45 -60 -23 -2 -34 2 -42 17 -12 23 -40 28 -40 8 0 -7 9
-23 20 -35 30 -32 93 -30 125 3 61 60 0 155 -80 125 -25 -9 -26 -8 -23 17 3
27 6 28 61 31 49 3 57 6 57 22 0 18 -7 20 -70 20 -48 0 -72 -4 -74 -12z"></path>
    <path d="M2246 14989 c-27 -21 -35 -49 -13 -49 7 0 18 9 25 20 14 23 54 26 72
5 18 -22 3 -55 -26 -55 -15 0 -24 -6 -24 -15 0 -8 8 -15 18 -15 24 0 42 -19
42 -46 0 -37 -61 -48 -82 -14 -13 20 -48 28 -48 11 0 -4 9 -20 21 -35 16 -21
29 -26 64 -26 35 0 48 5 64 26 26 34 27 58 0 82 -17 17 -18 20 -5 25 10 4 16
19 16 41 0 62 -70 87 -124 45z"></path>
    <path d="M2516 14993 c-11 -38 -10 -117 1 -120 7 -3 23 3 38 13 36 24 75 6 75
-34 0 -15 -5 -33 -12 -40 -17 -17 -67 -15 -74 3 -6 16 -44 21 -44 7 0 -5 10
-18 23 -30 45 -42 127 -22 141 34 16 61 -41 116 -97 95 -26 -10 -27 -9 -27 19
0 30 0 30 61 30 52 0 60 2 57 18 -3 14 -16 18 -70 20 -57 2 -67 0 -72 -15z"></path>
    <path d="M2690 15005 c0 -3 20 -36 45 -73 38 -56 45 -75 45 -114 0 -41 3 -48
20 -48 17 0 20 7 20 51 0 42 6 59 40 109 43 64 48 80 25 80 -8 0 -32 -25 -51
-56 l-37 -57 -34 57 c-23 37 -41 56 -54 56 -10 0 -19 -2 -19 -5z"></path>
    <path d="M4196 14989 c-27 -21 -35 -49 -13 -49 7 0 18 9 25 20 14 23 54 26 72
5 18 -22 3 -55 -26 -55 -15 0 -24 -6 -24 -15 0 -8 8 -15 18 -15 24 0 42 -19
42 -46 0 -37 -61 -48 -82 -14 -13 20 -48 28 -48 11 0 -4 9 -20 21 -35 16 -21
29 -26 64 -26 35 0 48 5 64 26 26 34 27 58 0 82 -17 17 -18 20 -5 25 10 4 16
19 16 41 0 62 -70 87 -124 45z"></path>
    <path d="M5636 14984 c-29 -29 -35 -64 -11 -64 9 0 20 11 25 24 12 31 26 39
56 32 18 -5 24 -13 24 -35 0 -22 -11 -37 -47 -67 -58 -47 -72 -64 -73 -86 0
-16 10 -18 80 -18 64 0 80 3 80 15 0 12 -13 15 -55 15 -30 0 -55 4 -55 9 0 6
20 24 44 41 68 50 82 95 41 135 -32 33 -75 33 -109 -1z"></path>
    <path d="M5836 14984 c-29 -29 -35 -64 -11 -64 9 0 20 11 25 24 12 31 26 39
56 32 18 -5 24 -13 24 -35 0 -22 -11 -37 -47 -67 -58 -47 -72 -64 -73 -86 0
-16 10 -18 80 -18 64 0 80 3 80 15 0 12 -13 15 -55 15 -30 0 -55 4 -55 9 0 6
20 24 44 41 69 50 85 104 40 139 -36 29 -76 27 -108 -5z"></path>
    <path d="M6106 14993 c-11 -38 -10 -117 1 -120 7 -3 23 3 38 13 36 24 75 6 75
-34 0 -15 -5 -33 -12 -40 -17 -17 -67 -15 -74 3 -6 16 -44 21 -44 7 0 -5 10
-18 23 -30 45 -42 127 -22 141 34 16 61 -41 116 -97 95 -25 -10 -27 -9 -27 19
0 28 1 29 58 32 43 2 57 7 57 18 0 12 -15 16 -67 18 -57 2 -67 0 -72 -15z"></path>
    <path d="M7376 14989 c-15 -12 -26 -30 -26 -45 0 -32 26 -31 34 1 11 45 87 42
86 -4 -1 -21 -16 -39 -67 -79 -22 -18 -46 -46 -52 -62 l-10 -30 85 0 c68 0 84
3 84 15 0 12 -14 15 -62 15 l-63 1 58 52 c47 43 57 58 57 85 0 65 -70 94 -124
51z"></path>
    <path d="M7576 14989 c-15 -12 -26 -30 -26 -45 0 -32 26 -31 34 1 11 45 87 42
86 -4 -1 -21 -16 -39 -67 -79 -22 -18 -46 -46 -52 -62 l-10 -30 85 0 c68 0 84
3 84 15 0 12 -14 15 -62 15 l-63 0 58 53 c48 43 58 57 57 85 0 65 -70 94 -124
51z"></path>
    <path d="M7756 15002 c-2 -4 -8 -36 -12 -70 -7 -69 -4 -72 45 -44 23 13 35 14
48 6 30 -19 38 -40 25 -68 -13 -30 -61 -36 -82 -11 -16 19 -40 19 -40 1 0 -23
41 -46 80 -46 48 0 80 33 80 82 0 56 -47 85 -106 65 -18 -6 -20 -4 -16 23 4
29 6 30 58 30 47 0 54 2 54 20 0 18 -7 20 -64 20 -36 0 -67 -4 -70 -8z"></path>
    <path d="M9029 14997 c-18 -13 -39 -50 -39 -66 0 -21 31 -11 40 13 12 31 26
39 56 32 18 -5 24 -13 24 -35 0 -23 -10 -38 -49 -68 -45 -35 -71 -69 -71 -93
0 -6 36 -10 80 -10 64 0 80 3 80 15 0 12 -13 15 -55 15 -30 0 -55 4 -55 9 0 6
20 24 44 41 68 50 82 95 41 135 -26 27 -70 32 -96 12z"></path>
    <path d="M9216 14984 c-29 -29 -35 -64 -11 -64 9 0 20 11 25 24 12 31 26 39
56 32 18 -5 24 -13 24 -35 0 -23 -10 -38 -49 -68 -45 -35 -71 -69 -71 -93 0
-6 36 -10 80 -10 64 0 80 3 80 15 0 12 -13 15 -55 15 -30 0 -55 4 -55 9 0 6
20 24 44 41 68 50 82 95 41 135 -32 33 -75 33 -109 -1z"></path>
    <path d="M9486 14993 c-11 -38 -10 -117 1 -120 7 -3 23 3 38 13 36 24 75 6 75
-34 0 -15 -5 -33 -12 -40 -17 -17 -67 -15 -74 3 -6 16 -44 21 -44 7 0 -5 10
-18 23 -30 45 -42 127 -22 141 34 16 61 -41 116 -97 95 -25 -10 -27 -9 -27 19
0 28 1 29 58 32 43 2 57 7 57 18 0 12 -15 16 -67 18 -57 2 -67 0 -72 -15z"></path>
    <path d="M943 14809 c-15 -15 -5 -39 17 -39 22 0 32 24 17 39 -6 6 -14 11 -17
11 -3 0 -11 -5 -17 -11z"></path>
    <path d="M2427 14814 c-16 -16 -7 -44 14 -44 15 0 20 5 17 22 -3 22 -19 33
-31 22z"></path>
    <path d="M6017 14814 c-16 -16 -7 -44 14 -44 15 0 20 5 17 22 -3 22 -19 33
-31 22z"></path>
    <path d="M9397 14814 c-16 -16 -7 -44 14 -44 15 0 20 5 17 22 -3 22 -19 33
-31 22z"></path>
    <path d="M712 13790 c-24 -23 -29 -50 -9 -50 7 0 20 9 30 20 9 11 23 20 31 20
15 0 46 -26 46 -39 0 -13 -24 -31 -42 -31 -29 0 -21 -25 12 -37 19 -7 30 -18
30 -30 0 -46 -59 -59 -86 -18 -18 27 -44 34 -44 11 0 -7 9 -25 21 -40 16 -21
29 -26 63 -26 71 0 111 65 68 108 -16 16 -17 20 -4 28 8 5 15 23 15 39 0 58
-85 87 -131 45z"></path>
    <path d="M927 13799 c-43 -25 -61 -133 -32 -188 16 -33 33 -41 80 -41 54 0 90
60 69 115 -10 26 -63 45 -92 34 -33 -13 -40 -3 -21 29 18 32 41 39 62 17 20
-19 47 -20 47 -1 0 36 -73 58 -113 35z m71 -121 c28 -28 7 -78 -33 -78 -27 0
-45 18 -45 45 0 27 18 45 45 45 12 0 26 -5 33 -12z"></path>
    <path d="M2408 13735 c-32 -42 -58 -85 -58 -95 0 -17 7 -20 55 -20 52 0 55 -1
55 -25 0 -18 5 -25 20 -25 15 0 20 7 20 25 0 16 6 25 15 25 8 0 15 7 15 15 0
8 -7 15 -15 15 -11 0 -15 18 -17 77 -4 103 -17 104 -90 8z m49 -82 c-3 -2 -21
-3 -40 -1 l-36 3 37 50 37 49 3 -48 c2 -26 1 -50 -1 -53z"></path>
    <path d="M2554 13795 c3 -8 22 -41 42 -72 27 -43 37 -70 39 -103 1 -33 6 -46
18 -48 14 -3 17 5 17 45 0 41 7 59 45 115 25 37 45 70 45 73 0 3 -8 5 -19 5
-11 0 -31 -21 -53 -56 l-34 -55 -37 55 c-21 31 -44 56 -53 56 -10 0 -14 -6
-10 -15z"></path>
    <path d="M4045 13785 c-14 -13 -25 -29 -25 -35 0 -18 31 -11 49 12 14 16 24
19 45 14 22 -5 27 -11 24 -33 -2 -19 -10 -29 -27 -33 -36 -8 -36 -25 1 -35 35
-11 47 -37 28 -60 -18 -22 -68 -19 -82 5 -15 23 -38 27 -38 5 0 -29 38 -55 80
-55 27 0 47 7 60 20 24 24 26 72 5 90 -14 12 -14 15 0 30 23 25 18 56 -11 79
-36 28 -79 27 -109 -4z"></path>
    <path d="M4316 13793 c-11 -38 -10 -117 1 -120 7 -3 23 3 38 13 36 24 75 6 75
-34 0 -15 -5 -33 -12 -40 -17 -17 -67 -15 -74 3 -6 16 -44 21 -44 7 0 -5 10
-18 23 -30 45 -42 127 -22 141 34 16 61 -41 116 -97 95 -25 -10 -27 -9 -27 19
0 28 1 29 58 32 43 2 57 7 57 18 0 12 -15 16 -67 18 -57 2 -67 0 -72 -15z"></path>
    <path d="M5786 13789 c-15 -12 -26 -30 -26 -45 0 -32 26 -31 34 1 8 31 51 44
73 22 24 -24 9 -58 -45 -99 -29 -21 -54 -50 -60 -67 l-11 -31 85 0 c68 0 84 3
84 15 0 12 -14 15 -62 15 l-63 1 58 52 c47 43 57 58 57 85 0 65 -70 94 -124
51z"></path>
    <path d="M5982 13787 c-12 -13 -22 -29 -22 -35 0 -19 24 -14 38 8 14 23 54 26
72 5 18 -22 3 -55 -26 -55 -15 0 -24 -6 -24 -15 0 -8 8 -15 18 -15 24 0 42
-19 42 -46 0 -37 -61 -48 -82 -14 -13 20 -48 28 -48 11 0 -4 9 -20 21 -35 16
-21 29 -26 64 -26 35 0 48 5 64 26 26 34 27 58 0 82 -17 17 -18 20 -5 25 25
10 21 73 -6 91 -33 23 -81 20 -106 -7z"></path>
    <path d="M7376 13789 c-15 -12 -26 -30 -26 -45 0 -32 26 -31 34 1 11 45 87 42
86 -4 -1 -21 -16 -39 -67 -79 -22 -18 -46 -46 -52 -62 l-10 -30 85 0 c68 0 84
3 84 15 0 12 -14 15 -62 15 l-63 1 58 52 c47 43 57 58 57 85 0 65 -70 94 -124
51z"></path>
    <path d="M7572 13787 c-12 -13 -22 -29 -22 -35 0 -19 24 -14 38 8 14 23 54 26
72 5 18 -22 3 -55 -26 -55 -15 0 -24 -6 -24 -15 0 -8 8 -15 18 -15 24 0 42
-19 42 -46 0 -37 -61 -48 -82 -14 -13 20 -48 28 -48 11 0 -4 9 -20 21 -35 16
-21 29 -26 64 -26 35 0 48 5 64 26 26 34 27 58 0 82 -17 17 -18 20 -5 25 25
10 21 73 -6 91 -33 23 -81 20 -106 -7z"></path>
    <path d="M7782 13803 c-44 -17 -60 -154 -24 -202 26 -35 90 -41 117 -11 20 22
32 110 21 154 -12 50 -67 78 -114 59z m76 -53 c15 -30 11 -112 -8 -135 -20
-24 -55 -19 -68 10 -17 37 -15 107 4 133 20 29 54 25 72 -8z"></path>
    <path d="M9166 13789 c-15 -12 -26 -30 -26 -45 0 -32 26 -31 34 1 8 31 51 44
73 22 24 -24 9 -58 -45 -99 -29 -21 -54 -50 -60 -67 l-11 -31 83 0 c67 0 83 3
83 15 0 12 -14 15 -61 15 l-61 0 58 53 c48 43 58 57 57 85 0 65 -70 94 -124
51z"></path>
    <path d="M9366 13789 c-27 -21 -35 -49 -13 -49 7 0 18 9 25 20 14 23 54 26 72
5 18 -22 3 -55 -26 -55 -15 0 -24 -6 -24 -15 0 -8 8 -15 18 -15 24 0 42 -19
42 -46 0 -37 -61 -48 -82 -14 -13 20 -48 28 -48 11 0 -4 9 -20 21 -35 16 -21
29 -26 64 -26 35 0 48 5 64 26 26 34 27 58 0 82 -17 17 -18 20 -5 25 10 4 16
19 16 41 0 62 -70 87 -124 45z"></path>
    <path d="M4231 13606 c-14 -17 -7 -36 14 -36 22 0 29 20 13 36 -13 13 -16 13
-27 0z"></path>
    <path d="M565 12585 c-30 -29 -32 -45 -5 -45 11 0 20 5 20 10 0 6 11 15 25 22
19 8 28 8 40 -2 23 -19 15 -53 -14 -60 -35 -8 -37 -26 -3 -33 16 -3 32 -13 36
-22 19 -51 -63 -79 -86 -30 -12 27 -31 28 -36 2 -9 -46 87 -76 136 -41 26 18
30 75 7 94 -14 12 -14 15 0 30 59 65 -57 139 -120 75z"></path>
    <path d="M771 12586 c-30 -32 -44 -97 -32 -143 15 -53 38 -73 83 -73 51 0 78
27 78 78 0 61 -51 94 -102 67 -30 -15 -33 -10 -19 28 13 33 47 44 71 22 10 -9
26 -15 35 -13 15 3 14 6 -5 31 -28 36 -77 37 -109 3z m88 -114 c22 -42 -13
-82 -59 -67 -15 5 -20 15 -20 39 0 18 3 36 7 39 14 14 63 7 72 -11z"></path>
    <path d="M1036 12598 c-3 -7 -7 -39 -9 -70 -6 -64 0 -69 47 -44 36 18 65 10
73 -22 8 -34 -8 -56 -45 -60 -23 -2 -34 2 -42 17 -12 23 -40 28 -40 8 0 -7 9
-23 20 -35 30 -32 93 -30 125 3 61 60 0 155 -80 125 -25 -9 -26 -8 -23 17 3
27 6 28 61 31 49 3 57 6 57 22 0 18 -7 20 -70 20 -48 0 -72 -4 -74 -12z"></path>
    <path d="M2261 12533 c-79 -102 -79 -113 -1 -113 57 0 60 -1 60 -25 0 -16 6
-25 15 -25 9 0 15 9 15 25 0 18 5 25 20 25 11 0 20 7 20 15 0 8 -9 15 -20 15
-18 0 -20 7 -20 80 0 63 -3 80 -14 80 -8 0 -42 -35 -75 -77z m59 -33 l0 -50
-45 0 -45 0 37 49 c21 28 41 50 46 50 4 1 7 -21 7 -49z"></path>
    <path d="M2516 12593 c-11 -38 -10 -117 1 -120 7 -3 23 3 38 13 36 24 75 6 75
-34 0 -15 -5 -33 -12 -40 -17 -17 -67 -15 -74 3 -6 16 -44 21 -44 7 0 -5 10
-18 23 -30 45 -42 127 -22 141 34 16 61 -41 116 -97 95 -26 -10 -27 -9 -27 19
0 30 0 30 61 30 52 0 60 2 57 18 -3 14 -16 18 -70 20 -57 2 -67 0 -72 -15z"></path>
    <path d="M2690 12605 c0 -3 20 -36 45 -73 38 -56 45 -75 45 -114 0 -41 3 -48
20 -48 17 0 20 7 20 51 0 42 6 59 40 109 43 64 48 80 25 80 -8 0 -32 -25 -51
-56 l-37 -57 -34 57 c-23 37 -41 56 -54 56 -10 0 -19 -2 -19 -5z"></path>
    <path d="M4211 12533 c-79 -102 -79 -113 -1 -113 57 0 60 -1 60 -25 0 -16 6
-25 15 -25 9 0 15 9 15 25 0 18 5 25 20 25 11 0 20 7 20 15 0 8 -9 15 -20 15
-18 0 -20 7 -20 80 0 63 -3 80 -14 80 -8 0 -42 -35 -75 -77z m59 -33 l0 -50
-45 0 -45 0 37 49 c21 28 41 50 46 50 4 1 7 -21 7 -49z"></path>
    <path d="M5636 12584 c-29 -29 -35 -64 -11 -64 9 0 20 11 25 24 12 31 26 39
56 32 18 -5 24 -13 24 -35 0 -22 -11 -37 -47 -67 -58 -47 -72 -64 -73 -86 0
-16 10 -18 80 -18 64 0 80 3 80 15 0 12 -13 15 -55 15 -30 0 -55 4 -55 9 0 6
20 24 44 41 68 50 82 95 41 135 -32 33 -75 33 -109 -1z"></path>
    <path d="M5835 12585 c-14 -13 -25 -29 -25 -35 0 -18 31 -11 49 12 14 16 24
19 45 14 22 -5 27 -11 24 -33 -2 -19 -10 -29 -27 -33 -36 -8 -36 -25 1 -35 35
-11 47 -37 28 -60 -18 -22 -68 -19 -82 5 -15 23 -38 27 -38 5 0 -29 38 -55 80
-55 27 0 47 7 60 20 24 24 26 72 5 90 -14 12 -14 15 0 30 23 25 18 56 -11 79
-36 28 -79 27 -109 -4z"></path>
    <path d="M6106 12593 c-11 -38 -10 -117 1 -120 7 -3 23 3 38 13 36 24 75 6 75
-34 0 -15 -5 -33 -12 -40 -17 -17 -67 -15 -74 3 -6 16 -44 21 -44 7 0 -5 10
-18 23 -30 45 -42 127 -22 141 34 16 61 -41 116 -97 95 -25 -10 -27 -9 -27 19
0 28 1 29 58 32 43 2 57 7 57 18 0 12 -15 16 -67 18 -57 2 -67 0 -72 -15z"></path>
    <path d="M7376 12589 c-15 -12 -26 -30 -26 -45 0 -32 26 -31 34 1 11 45 87 42
86 -4 -1 -21 -16 -39 -67 -79 -22 -18 -46 -46 -52 -62 l-10 -30 85 0 c68 0 84
3 84 15 0 12 -14 15 -62 15 l-63 1 58 52 c47 43 57 58 57 85 0 65 -70 94 -124
51z"></path>
    <path d="M7572 12587 c-12 -13 -22 -29 -22 -35 0 -19 24 -14 38 8 14 23 54 26
72 5 18 -22 3 -55 -26 -55 -15 0 -24 -6 -24 -15 0 -8 8 -15 18 -15 24 0 42
-19 42 -46 0 -37 -61 -48 -82 -14 -13 20 -48 28 -48 11 0 -4 9 -20 21 -35 16
-21 29 -26 64 -26 35 0 48 5 64 26 26 34 27 58 0 82 -17 17 -18 20 -5 25 25
10 21 73 -6 91 -33 23 -81 20 -106 -7z"></path>
    <path d="M7745 12544 c-4 -36 -4 -68 -1 -71 3 -4 22 2 41 13 26 14 40 16 52 8
30 -19 38 -40 25 -68 -13 -30 -61 -36 -82 -11 -16 19 -40 19 -40 1 0 -23 41
-46 80 -46 48 0 80 33 80 82 0 56 -47 85 -106 65 -18 -6 -20 -4 -16 23 4 29 6
30 58 30 47 0 54 2 54 20 0 18 -7 20 -69 20 l-69 0 -7 -66z"></path>
    <path d="M9029 12597 c-18 -13 -39 -50 -39 -66 0 -21 31 -11 40 13 12 31 26
39 56 32 18 -5 24 -13 24 -35 0 -23 -10 -38 -49 -68 -45 -35 -71 -69 -71 -93
0 -6 36 -10 80 -10 64 0 80 3 80 15 0 12 -13 15 -55 15 -30 0 -55 4 -55 9 0 6
20 24 44 41 68 50 82 95 41 135 -26 27 -70 32 -96 12z"></path>
    <path d="M9215 12585 c-14 -13 -25 -29 -25 -35 0 -18 31 -11 49 12 14 16 24
19 45 14 22 -5 27 -11 24 -33 -2 -19 -10 -29 -27 -33 -36 -8 -36 -25 1 -35 35
-11 47 -37 28 -60 -18 -22 -68 -19 -82 5 -15 23 -38 27 -38 5 0 -29 38 -55 80
-55 27 0 47 7 60 20 24 24 26 72 5 90 -14 12 -14 15 0 30 23 25 18 56 -11 79
-36 28 -79 27 -109 -4z"></path>
    <path d="M9486 12593 c-11 -38 -10 -117 1 -120 7 -3 23 3 38 13 36 24 75 6 75
-34 0 -15 -5 -33 -12 -40 -17 -17 -67 -15 -74 3 -6 16 -44 21 -44 7 0 -5 10
-18 23 -30 45 -42 127 -22 141 34 16 61 -41 116 -97 95 -25 -10 -27 -9 -27 19
0 28 1 29 58 32 43 2 57 7 57 18 0 12 -15 16 -67 18 -57 2 -67 0 -72 -15z"></path>
    <path d="M943 12409 c-15 -15 -5 -39 17 -39 22 0 32 24 17 39 -6 6 -14 11 -17
11 -3 0 -11 -5 -17 -11z"></path>
    <path d="M2427 12414 c-16 -16 -7 -44 14 -44 15 0 20 5 17 22 -3 22 -19 33
-31 22z"></path>
    <path d="M6017 12414 c-16 -16 -7 -44 14 -44 15 0 20 5 17 22 -3 22 -19 33
-31 22z"></path>
    <path d="M9397 12414 c-16 -16 -7 -44 14 -44 15 0 20 5 17 22 -3 22 -19 33
-31 22z"></path>
    <path d="M575 11385 c-30 -29 -32 -45 -5 -45 11 0 20 5 20 10 0 6 11 15 25 22
19 8 28 8 40 -2 23 -19 15 -53 -14 -60 -35 -8 -37 -26 -3 -33 16 -3 32 -13 36
-22 19 -50 -63 -79 -86 -30 -13 30 -38 33 -38 5 0 -52 87 -80 138 -44 26 18
30 75 7 94 -14 12 -14 15 0 30 59 65 -57 139 -120 75z"></path>
    <path d="M735 11400 c-12 -20 7 -30 61 -30 30 0 54 -2 54 -5 0 -3 -18 -48 -40
-101 -38 -91 -39 -95 -18 -92 17 2 30 23 60 97 21 52 38 105 38 118 0 22 -3
23 -74 23 -41 0 -78 -4 -81 -10z"></path>
    <path d="M1026 11364 c-13 -98 -4 -113 49 -78 44 29 89 -21 58 -65 -18 -27
-59 -27 -75 -1 -16 26 -38 26 -38 1 0 -50 99 -69 139 -27 52 55 -1 155 -69
129 -29 -11 -30 -10 -30 18 0 29 1 29 55 29 48 0 55 2 55 20 0 18 -7 20 -69
20 l-68 0 -7 -46z"></path>
    <path d="M2365 11344 c-4 -36 -4 -68 -1 -71 3 -4 22 2 41 13 26 14 40 16 52 8
30 -19 38 -40 25 -68 -13 -30 -61 -36 -82 -11 -16 19 -40 19 -40 1 0 -23 41
-46 80 -46 48 0 80 33 80 82 0 56 -47 85 -106 65 -18 -6 -20 -4 -16 23 4 29 6
30 58 30 47 0 54 2 54 20 0 18 -7 20 -69 20 l-69 0 -7 -66z"></path>
    <path d="M2554 11395 c3 -8 22 -41 42 -72 27 -43 37 -70 39 -103 1 -33 6 -46
18 -48 14 -3 17 5 17 45 0 41 7 59 45 115 25 37 45 70 45 73 0 3 -8 5 -19 5
-11 0 -31 -21 -53 -56 l-34 -55 -37 55 c-21 31 -44 56 -53 56 -10 0 -14 -6
-10 -15z"></path>
    <path d="M4068 11335 c-32 -42 -58 -85 -58 -95 0 -17 7 -20 55 -20 52 0 55 -1
55 -25 0 -18 5 -25 20 -25 15 0 20 7 20 25 0 16 6 25 15 25 8 0 15 7 15 15 0
8 -7 15 -15 15 -11 0 -15 18 -17 77 -4 103 -17 104 -90 8z m49 -82 c-3 -2 -21
-3 -40 -1 l-36 3 37 50 37 49 3 -48 c2 -26 1 -50 -1 -53z"></path>
    <path d="M4316 11393 c-11 -38 -10 -117 1 -120 7 -3 23 3 38 13 36 24 75 6 75
-34 0 -15 -5 -33 -12 -40 -17 -17 -67 -15 -74 3 -6 16 -44 21 -44 7 0 -5 10
-18 23 -30 45 -42 127 -22 141 34 16 61 -41 116 -97 95 -25 -10 -27 -9 -27 19
0 28 1 29 58 32 43 2 57 7 57 18 0 12 -15 16 -67 18 -57 2 -67 0 -72 -15z"></path>
    <path d="M5636 11384 c-29 -29 -35 -64 -11 -64 9 0 20 11 25 24 12 31 26 39
56 32 18 -5 24 -13 24 -35 0 -22 -11 -37 -47 -67 -58 -47 -72 -64 -73 -86 0
-16 10 -18 80 -18 64 0 80 3 80 15 0 12 -13 15 -55 15 -30 0 -55 4 -55 9 0 6
20 24 44 41 68 50 82 95 41 135 -32 33 -75 33 -109 -1z"></path>
    <path d="M5835 11385 c-14 -13 -25 -29 -25 -35 0 -18 31 -11 49 12 14 16 24
19 45 14 22 -5 27 -11 24 -33 -2 -19 -10 -29 -27 -33 -36 -8 -36 -25 1 -35 35
-11 47 -37 28 -60 -18 -22 -68 -19 -82 5 -15 23 -38 27 -38 5 0 -29 38 -55 80
-55 27 0 47 7 60 20 24 24 26 72 5 90 -14 12 -14 15 0 30 23 25 18 56 -11 79
-36 28 -79 27 -109 -4z"></path>
    <path d="M6106 11393 c-11 -38 -10 -117 1 -120 7 -3 23 3 38 13 36 24 75 6 75
-34 0 -15 -5 -33 -12 -40 -17 -17 -67 -15 -74 3 -6 16 -44 21 -44 7 0 -5 10
-18 23 -30 45 -42 127 -22 141 34 16 61 -41 116 -97 95 -25 -10 -27 -9 -27 19
0 28 1 29 58 32 43 2 57 7 57 18 0 12 -15 16 -67 18 -57 2 -67 0 -72 -15z"></path>
    <path d="M7376 11389 c-15 -12 -26 -30 -26 -45 0 -32 26 -31 34 1 11 45 87 42
86 -4 -1 -21 -16 -39 -67 -79 -22 -18 -46 -46 -52 -62 l-10 -30 85 0 c68 0 84
3 84 15 0 12 -14 15 -62 15 l-63 1 58 52 c47 43 57 58 57 85 0 65 -70 94 -124
51z"></path>
    <path d="M7572 11387 c-12 -13 -22 -29 -22 -35 0 -19 24 -14 38 8 14 23 54 26
72 5 18 -22 3 -55 -26 -55 -15 0 -24 -6 -24 -15 0 -8 8 -15 18 -15 24 0 42
-19 42 -46 0 -37 -61 -48 -82 -14 -13 20 -48 28 -48 11 0 -4 9 -20 21 -35 16
-21 29 -26 64 -26 35 0 48 5 64 26 26 34 27 58 0 82 -17 17 -18 20 -5 25 25
10 21 73 -6 91 -33 23 -81 20 -106 -7z"></path>
    <path d="M7745 11344 c-4 -36 -4 -68 -1 -71 3 -4 22 2 41 13 26 14 40 16 52 8
30 -19 38 -40 25 -68 -13 -30 -61 -36 -82 -11 -16 19 -40 19 -40 1 0 -23 41
-46 80 -46 48 0 80 33 80 82 0 56 -47 85 -106 65 -18 -6 -20 -4 -16 23 4 29 6
30 58 30 47 0 54 2 54 20 0 18 -7 20 -69 20 l-69 0 -7 -66z"></path>
    <path d="M9029 11397 c-18 -13 -39 -50 -39 -66 0 -21 31 -11 40 13 12 31 26
39 56 32 18 -5 24 -13 24 -35 0 -23 -10 -38 -49 -68 -45 -35 -71 -69 -71 -93
0 -6 36 -10 80 -10 64 0 80 3 80 15 0 12 -13 15 -55 15 -30 0 -55 4 -55 9 0 6
20 24 44 41 68 50 82 95 41 135 -26 27 -70 32 -96 12z"></path>
    <path d="M9215 11385 c-14 -13 -25 -29 -25 -35 0 -18 31 -11 49 12 14 16 24
19 45 14 22 -5 27 -11 24 -33 -2 -19 -10 -29 -27 -33 -36 -8 -36 -25 1 -35 35
-11 47 -37 28 -60 -18 -22 -68 -19 -82 5 -15 23 -38 27 -38 5 0 -29 38 -55 80
-55 27 0 47 7 60 20 24 24 26 72 5 90 -14 12 -14 15 0 30 23 25 18 56 -11 79
-36 28 -79 27 -109 -4z"></path>
    <path d="M9486 11393 c-11 -38 -10 -117 1 -120 7 -3 23 3 38 13 36 24 75 6 75
-34 0 -15 -5 -33 -12 -40 -17 -17 -67 -15 -74 3 -6 16 -44 21 -44 7 0 -5 10
-18 23 -30 45 -42 127 -22 141 34 16 61 -41 116 -97 95 -25 -10 -27 -9 -27 19
0 28 1 29 58 32 43 2 57 7 57 18 0 12 -15 16 -67 18 -57 2 -67 0 -72 -15z"></path>
    <path d="M934 11205 c-4 -9 -2 -21 4 -27 15 -15 44 -1 40 19 -4 23 -36 29 -44
8z"></path>
    <path d="M4231 11206 c-14 -17 -7 -36 14 -36 22 0 29 20 13 36 -13 13 -16 13
-27 0z"></path>
    <path d="M6017 11214 c-16 -16 -7 -44 14 -44 15 0 20 5 17 22 -3 22 -19 33
-31 22z"></path>
    <path d="M9397 11214 c-16 -16 -7 -44 14 -44 15 0 20 5 17 22 -3 22 -19 33
-31 22z"></path>
    <path d="M712 10190 c-24 -23 -29 -50 -9 -50 7 0 20 9 30 20 9 11 23 20 31 20
15 0 46 -26 46 -39 0 -13 -24 -31 -42 -31 -29 0 -21 -25 12 -37 19 -7 30 -18
30 -30 0 -46 -59 -59 -86 -18 -18 27 -44 34 -44 11 0 -7 9 -25 21 -40 16 -21
29 -26 63 -26 71 0 111 65 68 108 -16 16 -17 20 -4 28 8 5 15 23 15 39 0 58
-85 87 -131 45z"></path>
    <path d="M913 10195 c-27 -19 -34 -48 -18 -79 11 -21 11 -27 -1 -37 -23 -19
-18 -75 8 -93 33 -23 103 -21 128 4 25 25 26 64 1 89 -16 16 -17 20 -5 25 23
9 18 72 -8 90 -28 20 -77 20 -105 1z m88 -31 c20 -24 -1 -49 -42 -49 -25 0
-35 5 -37 18 -8 41 51 64 79 31z m-7 -97 c11 -8 17 -23 14 -38 -2 -20 -9 -25
-40 -27 -46 -4 -66 22 -42 56 17 25 42 28 68 9z"></path>
    <path d="M2226 10193 c-11 -38 -10 -117 1 -120 7 -3 23 3 38 13 36 24 75 6 75
-34 0 -15 -5 -33 -12 -40 -17 -17 -67 -15 -74 3 -6 16 -44 21 -44 7 0 -5 10
-18 23 -30 45 -42 127 -22 141 34 16 61 -41 116 -97 95 -25 -10 -27 -9 -27 19
0 28 1 29 58 32 43 2 57 7 57 18 0 12 -15 16 -67 18 -57 2 -67 0 -72 -15z"></path>
    <path d="M2516 10193 c-11 -38 -10 -117 1 -120 7 -3 23 3 38 13 36 24 75 6 75
-34 0 -15 -5 -33 -12 -40 -17 -17 -67 -15 -74 3 -6 16 -44 21 -44 7 0 -5 10
-18 23 -30 45 -42 127 -22 141 34 16 61 -41 116 -97 95 -26 -10 -27 -9 -27 19
0 30 0 30 61 30 52 0 60 2 57 18 -3 14 -16 18 -70 20 -57 2 -67 0 -72 -15z"></path>
    <path d="M2690 10205 c0 -3 20 -36 45 -73 38 -56 45 -75 45 -114 0 -41 3 -48
20 -48 17 0 20 7 20 51 0 42 6 59 40 109 43 64 48 80 25 80 -8 0 -32 -25 -51
-56 l-37 -57 -34 57 c-23 37 -41 56 -54 56 -10 0 -19 -2 -19 -5z"></path>
    <path d="M4176 10193 c-11 -38 -10 -117 1 -120 7 -3 23 3 38 13 36 24 75 6 75
-34 0 -15 -5 -33 -12 -40 -17 -17 -67 -15 -74 3 -6 16 -44 21 -44 7 0 -5 10
-18 23 -30 45 -42 127 -22 141 34 16 61 -41 116 -97 95 -26 -10 -27 -9 -27 19
0 30 0 30 61 30 52 0 60 2 57 18 -3 14 -16 18 -70 20 -57 2 -67 0 -72 -15z"></path>
    <path d="M5786 10189 c-15 -12 -26 -30 -26 -45 0 -32 26 -31 34 1 8 31 51 44
73 22 24 -24 9 -58 -45 -99 -29 -21 -54 -50 -60 -67 l-11 -31 85 0 c68 0 84 3
84 15 0 12 -14 15 -62 15 l-63 1 58 52 c47 43 57 58 57 85 0 65 -70 94 -124
51z"></path>
    <path d="M6001 10133 c-79 -102 -79 -113 -1 -113 57 0 60 -1 60 -25 0 -16 6
-25 15 -25 9 0 15 9 15 25 0 18 5 25 20 25 11 0 20 7 20 15 0 8 -9 15 -20 15
-18 0 -20 7 -20 80 0 63 -3 80 -14 80 -8 0 -42 -35 -75 -77z m59 -33 l0 -50
-40 0 c-22 0 -40 2 -40 5 0 10 65 94 73 95 4 0 7 -22 7 -50z"></path>
    <path d="M7376 10189 c-15 -12 -26 -30 -26 -45 0 -32 26 -31 34 1 11 45 87 42
86 -4 -1 -21 -16 -39 -67 -79 -22 -18 -46 -46 -52 -62 l-10 -30 85 0 c68 0 84
3 84 15 0 12 -14 15 -62 15 l-63 1 58 52 c47 43 57 58 57 85 0 65 -70 94 -124
51z"></path>
    <path d="M7591 10133 c-79 -102 -79 -113 -1 -113 57 0 60 -1 60 -25 0 -16 6
-25 15 -25 9 0 15 9 15 25 0 18 5 25 20 25 11 0 20 7 20 15 0 8 -9 15 -20 15
-18 0 -20 7 -20 80 0 63 -3 80 -14 80 -8 0 -42 -35 -75 -77z m59 -33 l0 -50
-45 0 -45 0 37 49 c21 28 41 50 46 50 4 1 7 -21 7 -49z"></path>
    <path d="M7773 10195 c-43 -30 -48 -161 -8 -205 25 -27 86 -27 110 0 20 22 32
111 21 154 -14 57 -77 83 -123 51z m85 -45 c15 -30 11 -112 -8 -135 -20 -24
-55 -19 -68 10 -17 37 -15 107 4 133 20 29 54 25 72 -8z"></path>
    <path d="M9166 10189 c-15 -12 -26 -30 -26 -45 0 -32 26 -31 34 1 8 31 51 44
73 22 24 -24 9 -58 -45 -99 -29 -21 -54 -50 -60 -67 l-11 -31 85 0 c68 0 84 3
84 15 0 12 -14 15 -62 15 l-63 0 58 53 c48 43 58 57 57 85 0 65 -70 94 -124
51z"></path>
    <path d="M9381 10133 c-79 -102 -79 -113 -1 -113 57 0 60 -1 60 -25 0 -16 6
-25 15 -25 9 0 15 9 15 25 0 18 5 25 20 25 11 0 20 7 20 15 0 8 -9 15 -20 15
-18 0 -20 7 -20 80 0 63 -3 80 -14 80 -8 0 -42 -35 -75 -77z m59 -33 l0 -50
-45 0 -45 0 37 49 c21 28 41 50 46 50 4 1 7 -21 7 -49z"></path>
    <path d="M2427 10014 c-16 -16 -7 -44 14 -44 15 0 20 5 17 22 -3 22 -19 33
-31 22z"></path>
    <path d="M565 8985 c-30 -29 -32 -45 -5 -45 11 0 20 5 20 10 0 6 11 15 25 22
19 8 28 8 40 -2 23 -19 15 -53 -14 -60 -35 -8 -37 -26 -3 -33 16 -3 32 -13 36
-22 19 -51 -63 -79 -86 -30 -12 27 -31 28 -36 2 -9 -46 87 -76 136 -41 26 18
30 75 7 94 -14 12 -14 15 0 30 59 65 -57 139 -120 75z"></path>
    <path d="M775 8998 c-11 -6 -23 -16 -27 -22 -12 -18 -9 -53 6 -65 13 -11 12
-15 -5 -32 -25 -25 -24 -60 1 -87 16 -17 32 -22 70 -22 41 0 52 4 69 26 26 33
26 45 2 75 -17 22 -17 27 -5 44 21 28 17 51 -12 74 -29 23 -68 27 -99 9z m75
-33 c22 -26 8 -50 -30 -50 -29 0 -36 4 -38 24 -6 38 43 57 68 26z m4 -101 c30
-30 12 -64 -34 -64 -67 0 -65 78 2 80 9 0 24 -7 32 -16z"></path>
    <path d="M1036 8998 c-3 -7 -7 -39 -9 -70 -6 -64 0 -69 47 -44 36 18 65 10 73
-22 8 -34 -8 -56 -45 -60 -23 -2 -34 2 -42 17 -12 23 -40 28 -40 8 0 -7 9 -23
20 -35 30 -32 93 -30 125 3 61 60 0 155 -80 125 -25 -9 -26 -8 -23 17 3 27 6
28 61 31 49 3 57 6 57 22 0 18 -7 20 -70 20 -48 0 -72 -4 -74 -12z"></path>
    <path d="M2395 8987 c-47 -40 -52 -151 -9 -198 24 -26 87 -26 114 1 24 24 26
77 4 108 -17 25 -81 31 -102 10 -18 -18 -16 23 4 50 18 26 46 28 68 6 9 -8 23
-14 32 -12 14 3 13 7 -6 31 -27 34 -69 36 -105 4z m76 -106 c20 -16 22 -23 14
-47 -18 -51 -95 -40 -95 13 0 15 35 53 49 53 5 0 19 -9 32 -19z"></path>
    <path d="M2554 8995 c3 -8 22 -41 42 -72 27 -43 37 -70 39 -103 1 -33 6 -46
18 -48 14 -3 17 5 17 45 0 41 7 59 45 115 25 37 45 70 45 73 0 3 -8 5 -19 5
-11 0 -31 -21 -53 -56 l-34 -55 -37 55 c-21 31 -44 56 -53 56 -10 0 -14 -6
-10 -15z"></path>
    <path d="M4036 9002 c-2 -4 -8 -36 -12 -70 -7 -69 -4 -72 45 -44 23 13 35 14
48 6 30 -19 38 -40 25 -68 -13 -30 -61 -36 -82 -11 -16 19 -40 19 -40 1 0 -23
41 -46 80 -46 48 0 80 33 80 82 0 56 -47 85 -106 65 -18 -6 -20 -4 -16 23 4
29 6 30 58 30 47 0 54 2 54 20 0 18 -7 20 -64 20 -36 0 -67 -4 -70 -8z"></path>
    <path d="M4316 8993 c-11 -38 -10 -117 1 -120 7 -3 23 3 38 13 36 24 75 6 75
-34 0 -15 -5 -33 -12 -40 -17 -17 -67 -15 -74 3 -6 16 -44 21 -44 7 0 -5 10
-18 23 -30 45 -42 127 -22 141 34 16 61 -41 116 -97 95 -25 -10 -27 -9 -27 19
0 28 1 29 58 32 43 2 57 7 57 18 0 12 -15 16 -67 18 -57 2 -67 0 -72 -15z"></path>
    <path d="M5786 8989 c-15 -12 -26 -30 -26 -45 0 -32 26 -31 34 1 8 31 51 44
73 22 24 -24 9 -58 -45 -99 -29 -21 -54 -50 -60 -67 l-11 -31 85 0 c68 0 84 3
84 15 0 12 -14 15 -62 15 l-63 1 58 52 c47 43 57 58 57 85 0 65 -70 94 -124
51z"></path>
    <path d="M6001 8933 c-79 -102 -79 -113 -1 -113 57 0 60 -1 60 -25 0 -16 6
-25 15 -25 9 0 15 9 15 25 0 18 5 25 20 25 11 0 20 7 20 15 0 8 -9 15 -20 15
-18 0 -20 7 -20 80 0 63 -3 80 -14 80 -8 0 -42 -35 -75 -77z m59 -33 l0 -50
-40 0 c-22 0 -40 2 -40 5 0 10 65 94 73 95 4 0 7 -22 7 -50z"></path>
    <path d="M7376 8989 c-15 -12 -26 -30 -26 -45 0 -32 26 -31 34 1 11 45 87 42
86 -4 -1 -21 -16 -39 -67 -79 -22 -18 -46 -46 -52 -62 l-10 -30 85 0 c68 0 84
3 84 15 0 12 -14 15 -62 15 l-63 1 58 52 c47 43 57 58 57 85 0 65 -70 94 -124
51z"></path>
    <path d="M7591 8933 c-79 -102 -79 -113 -1 -113 57 0 60 -1 60 -25 0 -16 6
-25 15 -25 9 0 15 9 15 25 0 18 5 25 20 25 11 0 20 7 20 15 0 8 -9 15 -20 15
-18 0 -20 7 -20 80 0 63 -3 80 -14 80 -8 0 -42 -35 -75 -77z m59 -33 l0 -50
-45 0 -45 0 37 49 c21 28 41 50 46 50 4 1 7 -21 7 -49z"></path>
    <path d="M7773 8995 c-43 -30 -48 -161 -8 -205 25 -27 86 -27 110 0 20 22 32
111 21 154 -14 57 -77 83 -123 51z m85 -45 c15 -30 11 -112 -8 -135 -20 -24
-55 -19 -68 10 -17 37 -15 107 4 133 20 29 54 25 72 -8z"></path>
    <path d="M9166 8989 c-15 -12 -26 -30 -26 -45 0 -32 26 -31 34 1 8 31 51 44
73 22 24 -24 9 -58 -45 -99 -29 -21 -54 -50 -60 -67 l-11 -31 85 0 c68 0 84 3
84 15 0 12 -14 15 -62 15 l-63 0 58 53 c48 43 58 57 57 85 0 65 -70 94 -124
51z"></path>
    <path d="M9381 8933 c-79 -102 -79 -113 -1 -113 57 0 60 -1 60 -25 0 -16 6
-25 15 -25 9 0 15 9 15 25 0 18 5 25 20 25 11 0 20 7 20 15 0 8 -9 15 -20 15
-18 0 -20 7 -20 80 0 63 -3 80 -14 80 -8 0 -42 -35 -75 -77z m59 -33 l0 -50
-45 0 -45 0 37 49 c21 28 41 50 46 50 4 1 7 -21 7 -49z"></path>
    <path d="M943 8809 c-15 -15 -5 -39 17 -39 22 0 32 24 17 39 -6 6 -14 11 -17
11 -3 0 -11 -5 -17 -11z"></path>
    <path d="M4231 8806 c-14 -17 -7 -36 14 -36 22 0 29 20 13 36 -13 13 -16 13
-27 0z"></path>
    <path d="M712 7790 c-24 -23 -29 -50 -9 -50 7 0 20 9 30 20 9 11 23 20 31 20
15 0 46 -26 46 -39 0 -13 -24 -31 -42 -31 -29 0 -21 -25 12 -37 19 -7 30 -18
30 -30 0 -46 -59 -59 -86 -18 -18 27 -44 34 -44 11 0 -7 9 -25 21 -40 16 -21
29 -26 63 -26 71 0 111 65 68 108 -16 16 -17 20 -4 28 8 5 15 23 15 39 0 58
-85 87 -131 45z"></path>
    <path d="M905 7785 c-65 -64 7 -167 86 -125 24 13 26 -6 3 -38 -18 -25 -46
-29 -64 -7 -7 8 -21 15 -31 15 -16 0 -17 -3 -7 -25 21 -46 98 -47 131 -3 27
36 34 116 13 156 -29 57 -90 69 -131 27z m90 -25 c24 -26 13 -68 -20 -76 -33
-8 -55 11 -55 47 0 46 44 63 75 29z"></path>
    <path d="M2257 7799 c-60 -35 -61 -200 -2 -223 54 -20 125 16 125 64 0 24 -18
61 -34 72 -16 11 -64 10 -86 -2 -15 -8 -17 -6 -13 13 13 50 57 73 83 42 16
-19 40 -19 40 -1 0 36 -73 58 -113 35z m81 -143 c4 -35 -15 -58 -46 -54 -32 4
-47 28 -38 61 11 46 79 41 84 -7z"></path>
    <path d="M2516 7793 c-11 -38 -10 -117 1 -120 7 -3 23 3 38 13 36 24 75 6 75
-34 0 -15 -5 -33 -12 -40 -17 -17 -67 -15 -74 3 -6 16 -44 21 -44 7 0 -5 10
-18 23 -30 45 -42 127 -22 141 34 16 61 -41 116 -97 95 -26 -10 -27 -9 -27 19
0 30 0 30 61 30 52 0 60 2 57 18 -3 14 -16 18 -70 20 -57 2 -67 0 -72 -15z"></path>
    <path d="M2690 7805 c0 -3 20 -36 45 -73 38 -56 45 -75 45 -114 0 -41 3 -48
20 -48 17 0 20 7 20 51 0 42 6 59 40 109 43 64 48 80 25 80 -8 0 -32 -25 -51
-56 l-37 -57 -34 57 c-23 37 -41 56 -54 56 -10 0 -19 -2 -19 -5z"></path>
    <path d="M4207 7799 c-60 -35 -61 -200 -2 -223 54 -20 125 16 125 64 0 24 -18
61 -34 72 -16 11 -64 10 -86 -2 -15 -8 -17 -6 -13 13 13 50 57 73 83 42 16
-19 40 -19 40 -1 0 36 -73 58 -113 35z m81 -143 c4 -35 -15 -58 -46 -54 -32 4
-47 28 -38 61 11 46 79 41 84 -7z"></path>
    <path d="M5636 7784 c-29 -29 -35 -64 -11 -64 9 0 20 11 25 24 12 31 26 39 56
32 18 -5 24 -13 24 -35 0 -22 -11 -37 -47 -67 -58 -47 -72 -64 -73 -86 0 -16
10 -18 80 -18 64 0 80 3 80 15 0 12 -13 15 -55 15 -30 0 -55 4 -55 9 0 6 20
24 44 41 68 50 82 95 41 135 -32 33 -75 33 -109 -1z"></path>
    <path d="M5858 7735 c-32 -42 -58 -85 -58 -95 0 -17 7 -20 55 -20 52 0 55 -1
55 -25 0 -18 5 -25 20 -25 15 0 20 7 20 25 0 16 6 25 15 25 8 0 15 7 15 15 0
8 -7 15 -15 15 -11 0 -15 18 -17 77 -4 103 -17 104 -90 8z m49 -82 c-3 -2 -21
-3 -40 -1 l-36 3 37 50 37 49 3 -48 c2 -26 1 -50 -1 -53z"></path>
    <path d="M6106 7793 c-11 -38 -10 -117 1 -120 7 -3 23 3 38 13 36 24 75 6 75
-34 0 -15 -5 -33 -12 -40 -17 -17 -67 -15 -74 3 -6 16 -44 21 -44 7 0 -5 10
-18 23 -30 45 -42 127 -22 141 34 16 61 -41 116 -97 95 -25 -10 -27 -9 -27 19
0 28 1 29 58 32 43 2 57 7 57 18 0 12 -15 16 -67 18 -57 2 -67 0 -72 -15z"></path>
    <path d="M7376 7789 c-15 -12 -26 -30 -26 -45 0 -32 26 -31 34 1 11 45 87 42
86 -4 -1 -21 -16 -39 -67 -79 -22 -18 -46 -46 -52 -62 l-10 -30 85 0 c68 0 84
3 84 15 0 12 -14 15 -62 15 l-63 1 58 52 c47 43 57 58 57 85 0 65 -70 94 -124
51z"></path>
    <path d="M7591 7733 c-79 -102 -79 -113 -1 -113 57 0 60 -1 60 -25 0 -16 6
-25 15 -25 9 0 15 9 15 25 0 18 5 25 20 25 11 0 20 7 20 15 0 8 -9 15 -20 15
-18 0 -20 7 -20 80 0 63 -3 80 -14 80 -8 0 -42 -35 -75 -77z m59 -33 l0 -50
-45 0 -45 0 37 49 c21 28 41 50 46 50 4 1 7 -21 7 -49z"></path>
    <path d="M7756 7802 c-2 -4 -8 -36 -12 -70 -7 -69 -4 -72 45 -44 23 13 35 14
48 6 30 -19 38 -40 25 -68 -13 -30 -61 -36 -82 -11 -16 19 -40 19 -40 1 0 -23
41 -46 80 -46 48 0 80 33 80 82 0 56 -47 85 -106 65 -18 -6 -20 -4 -16 23 4
29 6 30 58 30 47 0 54 2 54 20 0 18 -7 20 -64 20 -36 0 -67 -4 -70 -8z"></path>
    <path d="M9029 7797 c-18 -13 -39 -50 -39 -66 0 -21 31 -11 40 13 12 31 26 39
56 32 18 -5 24 -13 24 -35 0 -23 -10 -38 -49 -68 -45 -35 -71 -69 -71 -93 0
-6 36 -10 80 -10 64 0 80 3 80 15 0 12 -13 15 -55 15 -30 0 -55 4 -55 9 0 6
20 24 44 41 68 50 82 95 41 135 -26 27 -70 32 -96 12z"></path>
    <path d="M9238 7735 c-32 -42 -58 -85 -58 -95 0 -17 7 -20 55 -20 52 0 55 -1
55 -25 0 -18 5 -25 20 -25 15 0 20 7 20 25 0 16 6 25 15 25 8 0 15 7 15 15 0
8 -7 15 -15 15 -11 0 -15 18 -17 77 -4 103 -17 104 -90 8z m49 -82 c-3 -2 -21
-3 -40 -1 l-36 3 37 50 37 49 3 -48 c2 -26 1 -50 -1 -53z"></path>
    <path d="M9486 7793 c-11 -38 -10 -117 1 -120 7 -3 23 3 38 13 36 24 75 6 75
-34 0 -15 -5 -33 -12 -40 -17 -17 -67 -15 -74 3 -6 16 -44 21 -44 7 0 -5 10
-18 23 -30 45 -42 127 -22 141 34 16 61 -41 116 -97 95 -25 -10 -27 -9 -27 19
0 28 1 29 58 32 43 2 57 7 57 18 0 12 -15 16 -67 18 -57 2 -67 0 -72 -15z"></path>
    <path d="M2427 7614 c-16 -16 -7 -44 14 -44 15 0 20 5 17 22 -3 22 -19 33 -31
22z"></path>
    <path d="M6017 7614 c-16 -16 -7 -44 14 -44 15 0 20 5 17 22 -3 22 -19 33 -31
22z"></path>
    <path d="M9397 7614 c-16 -16 -7 -44 14 -44 15 0 20 5 17 22 -3 22 -19 33 -31
22z"></path>
    <path d="M730 6534 c-79 -101 -79 -114 1 -114 33 0 58 -4 55 -9 -9 -14 4 -41
20 -41 8 0 14 10 14 25 0 18 5 25 20 25 11 0 20 7 20 15 0 8 -9 15 -20 15 -18
0 -20 7 -20 80 0 103 -11 104 -90 4z m55 -36 c-2 -42 -3 -43 -38 -46 -21 -2
-37 0 -37 3 0 11 61 85 69 85 5 0 7 -19 6 -42z"></path>
    <path d="M914 6587 c-20 -18 -28 -35 -32 -75 -8 -93 20 -142 82 -142 54 0 86
44 86 116 0 101 -72 155 -136 101z m86 -38 c15 -27 12 -102 -6 -127 -19 -27
-50 -29 -64 -3 -5 11 -10 44 -10 75 0 45 4 58 21 70 24 17 45 12 59 -15z"></path>
    <path d="M2360 6590 c0 -16 8 -19 59 -22 l60 -3 -40 -94 c-21 -52 -39 -96 -39
-98 0 -1 8 -3 18 -3 15 0 29 25 62 109 23 60 39 114 36 120 -4 6 -38 11 -82
11 -67 0 -74 -2 -74 -20z"></path>
    <path d="M2540 6602 c0 -5 19 -38 41 -73 36 -55 44 -80 48 -146 1 -7 8 -13 16
-13 11 0 15 12 15 48 0 39 7 58 45 114 25 37 45 70 45 73 0 3 -8 5 -19 5 -11
0 -31 -21 -53 -56 l-34 -55 -37 55 c-32 49 -67 73 -67 48z"></path>
    <path d="M4207 6599 c-60 -35 -61 -200 -2 -223 54 -20 125 16 125 64 0 24 -18
61 -34 72 -16 11 -64 10 -86 -2 -15 -8 -17 -6 -13 13 13 50 57 73 83 42 16
-19 40 -19 40 -1 0 36 -73 58 -113 35z m81 -143 c4 -35 -15 -58 -46 -54 -32 4
-47 28 -38 61 11 46 79 41 84 -7z"></path>
    <path d="M5786 6589 c-15 -12 -26 -30 -26 -45 0 -32 26 -31 34 1 8 31 51 44
73 22 24 -24 9 -58 -45 -99 -29 -21 -54 -50 -60 -67 l-11 -31 85 0 c68 0 84 3
84 15 0 12 -14 15 -62 15 l-63 1 58 52 c47 43 57 58 57 85 0 65 -70 94 -124
51z"></path>
    <path d="M5966 6593 c-11 -38 -10 -117 1 -120 7 -3 23 3 38 13 36 24 75 6 75
-34 0 -15 -5 -33 -12 -40 -17 -17 -67 -15 -74 3 -6 16 -44 21 -44 7 0 -5 10
-18 23 -30 45 -42 127 -22 141 34 16 61 -41 116 -97 95 -25 -10 -27 -9 -27 19
0 28 1 29 58 32 43 2 57 7 57 18 0 12 -15 16 -67 18 -57 2 -67 0 -72 -15z"></path>
    <path d="M7376 6589 c-15 -12 -26 -30 -26 -45 0 -32 26 -31 34 1 11 45 87 42
86 -4 -1 -21 -16 -39 -67 -79 -22 -18 -46 -46 -52 -62 l-10 -30 85 0 c68 0 84
3 84 15 0 12 -14 15 -62 15 l-63 1 58 52 c47 43 57 58 57 85 0 65 -70 94 -124
51z"></path>
    <path d="M7556 6593 c-11 -38 -10 -117 1 -120 7 -3 23 3 38 13 36 24 75 6 75
-34 0 -15 -5 -33 -12 -40 -17 -17 -67 -15 -74 3 -6 16 -44 21 -44 7 0 -5 10
-18 23 -30 45 -42 127 -22 141 34 16 61 -41 116 -97 95 -25 -10 -27 -9 -27 19
0 28 1 29 58 32 43 2 57 7 57 18 0 12 -15 16 -67 18 -57 2 -67 0 -72 -15z"></path>
    <path d="M7782 6603 c-44 -17 -60 -154 -24 -202 26 -35 90 -41 117 -11 20 22
32 110 21 154 -12 50 -67 78 -114 59z m76 -53 c15 -30 11 -112 -8 -135 -20
-24 -55 -19 -68 10 -17 37 -15 107 4 133 20 29 54 25 72 -8z"></path>
    <path d="M9166 6589 c-15 -12 -26 -30 -26 -45 0 -32 26 -31 34 1 8 31 51 44
73 22 24 -24 9 -58 -45 -99 -29 -21 -54 -50 -60 -67 l-11 -31 85 0 c68 0 84 3
84 15 0 12 -14 15 -62 15 l-63 0 58 53 c48 43 58 57 57 85 0 65 -70 94 -124
51z"></path>
    <path d="M9346 6593 c-11 -38 -10 -117 1 -120 7 -3 23 3 38 13 36 24 75 6 75
-34 0 -15 -5 -33 -12 -40 -17 -17 -67 -15 -74 3 -6 16 -44 21 -44 7 0 -5 10
-18 23 -30 45 -42 127 -22 141 34 16 61 -41 116 -97 95 -25 -10 -27 -9 -27 19
0 28 1 29 58 32 43 2 57 7 57 18 0 12 -15 16 -67 18 -57 2 -67 0 -72 -15z"></path>
    <path d="M587 5336 c-31 -41 -57 -84 -57 -95 0 -19 6 -21 55 -21 52 0 55 -1
55 -25 0 -18 5 -25 20 -25 15 0 20 7 20 25 0 16 6 25 15 25 8 0 15 7 15 15 0
8 -7 15 -15 15 -11 0 -15 18 -17 77 -4 103 -17 105 -91 9z m50 -83 c-3 -2 -21
-3 -40 -1 l-36 3 37 50 37 49 3 -48 c2 -26 1 -50 -1 -53z"></path>
    <path d="M773 5395 c-45 -32 -50 -159 -7 -206 24 -26 85 -26 109 1 20 22 32
111 21 155 -15 58 -76 83 -123 50z m70 -30 c32 -31 29 -137 -4 -158 -40 -25
-74 28 -66 102 3 27 12 50 23 58 23 17 29 16 47 -2z"></path>
    <path d="M1036 5398 c-3 -7 -7 -39 -9 -70 -6 -64 0 -69 47 -44 36 18 65 10 73
-22 8 -34 -8 -56 -45 -60 -23 -2 -34 2 -42 17 -12 23 -40 28 -40 8 0 -7 9 -23
20 -35 30 -32 93 -30 125 3 61 60 0 155 -80 125 -25 -9 -26 -8 -23 17 3 27 6
28 61 31 49 3 57 6 57 22 0 18 -7 20 -70 20 -48 0 -72 -4 -74 -12z"></path>
    <path d="M2220 5390 c0 -18 7 -20 55 -20 30 0 55 -4 55 -8 0 -5 -18 -50 -40
-101 -36 -86 -38 -92 -18 -89 15 2 29 25 59 98 21 52 38 105 38 118 1 21 -3
22 -74 22 -68 0 -75 -2 -75 -20z"></path>
    <path d="M2506 5393 c-11 -38 -10 -117 1 -120 7 -3 23 3 38 13 36 24 75 6 75
-34 0 -15 -5 -33 -12 -40 -17 -17 -67 -15 -74 3 -6 16 -44 21 -44 7 0 -5 10
-18 23 -30 45 -42 127 -22 141 34 16 61 -41 116 -97 95 -25 -10 -27 -9 -27 19
0 28 1 29 58 32 43 2 57 7 57 18 0 12 -15 16 -67 18 -57 2 -67 0 -72 -15z"></path>
    <path d="M2680 5405 c0 -3 20 -36 45 -73 38 -56 45 -75 45 -114 0 -41 3 -48
20 -48 17 0 20 7 20 51 0 42 6 59 40 109 43 64 48 80 25 80 -8 0 -32 -25 -51
-56 l-37 -57 -34 57 c-23 37 -41 56 -54 56 -10 0 -19 -2 -19 -5z"></path>
    <path d="M4057 5390 c-47 -37 -54 -154 -11 -201 24 -26 87 -26 114 1 24 24 26
77 4 108 -17 25 -81 31 -102 10 -18 -18 -16 23 4 50 18 26 46 28 68 6 9 -8 23
-14 32 -12 14 3 13 7 -6 31 -26 33 -66 36 -103 7z m74 -109 c20 -16 22 -23 14
-47 -18 -51 -95 -40 -95 13 0 15 35 53 49 53 5 0 19 -9 32 -19z"></path>
    <path d="M4316 5393 c-11 -38 -10 -117 1 -120 7 -3 23 3 38 13 36 24 75 6 75
-34 0 -15 -5 -33 -12 -40 -17 -17 -67 -15 -74 3 -6 16 -44 21 -44 7 0 -5 10
-18 23 -30 45 -42 127 -22 141 34 16 61 -41 116 -97 95 -25 -10 -27 -9 -27 19
0 28 1 29 58 32 43 2 57 7 57 18 0 12 -15 16 -67 18 -57 2 -67 0 -72 -15z"></path>
    <path d="M5636 5384 c-29 -29 -35 -64 -11 -64 9 0 20 11 25 24 12 31 26 39 56
32 18 -5 24 -13 24 -35 0 -22 -11 -37 -47 -67 -58 -47 -72 -64 -73 -86 0 -16
10 -18 80 -18 64 0 80 3 80 15 0 12 -13 15 -55 15 -30 0 -55 4 -55 9 0 6 20
24 44 41 68 50 82 95 41 135 -32 33 -75 33 -109 -1z"></path>
    <path d="M5815 5344 c-4 -36 -4 -68 -1 -71 3 -4 22 2 41 13 26 14 40 16 52 8
30 -19 38 -40 25 -68 -13 -30 -61 -36 -82 -11 -16 19 -40 19 -40 1 0 -23 41
-46 80 -46 48 0 80 33 80 82 0 56 -57 89 -111 64 -13 -6 -15 -1 -11 24 4 29 6
30 58 30 47 0 54 2 54 20 0 18 -7 20 -69 20 l-69 0 -7 -66z"></path>
    <path d="M6106 5393 c-11 -38 -10 -117 1 -120 7 -3 23 3 38 13 36 24 75 6 75
-34 0 -15 -5 -33 -12 -40 -17 -17 -67 -15 -74 3 -6 16 -44 21 -44 7 0 -5 10
-18 23 -30 45 -42 127 -22 141 34 16 61 -41 116 -97 95 -25 -10 -27 -9 -27 19
0 28 1 29 58 32 43 2 57 7 57 18 0 12 -15 16 -67 18 -57 2 -67 0 -72 -15z"></path>
    <path d="M7376 5389 c-15 -12 -26 -30 -26 -45 0 -32 26 -31 34 1 11 45 87 42
86 -4 -1 -21 -16 -39 -67 -79 -22 -18 -46 -46 -52 -62 l-10 -30 85 0 c68 0 84
3 84 15 0 12 -14 15 -62 15 l-63 1 58 52 c47 43 57 58 57 85 0 65 -70 94 -124
51z"></path>
    <path d="M7556 5393 c-11 -38 -10 -117 1 -120 7 -3 23 3 38 13 36 24 75 6 75
-34 0 -15 -5 -33 -12 -40 -17 -17 -67 -15 -74 3 -6 16 -44 21 -44 7 0 -5 10
-18 23 -30 45 -42 127 -22 141 34 16 61 -41 116 -97 95 -25 -10 -27 -9 -27 19
0 28 1 29 58 32 43 2 57 7 57 18 0 12 -15 16 -67 18 -57 2 -67 0 -72 -15z"></path>
    <path d="M7745 5344 c-4 -36 -4 -68 -1 -71 3 -4 22 2 41 13 26 14 40 16 52 8
30 -19 38 -40 25 -68 -13 -30 -61 -36 -82 -11 -16 19 -40 19 -40 1 0 -23 41
-46 80 -46 48 0 80 33 80 82 0 56 -47 85 -106 65 -18 -6 -20 -4 -16 23 4 29 6
30 58 30 47 0 54 2 54 20 0 18 -7 20 -69 20 l-69 0 -7 -66z"></path>
    <path d="M9029 5397 c-18 -13 -39 -50 -39 -66 0 -21 31 -11 40 13 12 31 26 39
56 32 18 -5 24 -13 24 -35 0 -23 -10 -38 -49 -68 -45 -35 -71 -69 -71 -93 0
-6 36 -10 80 -10 64 0 80 3 80 15 0 12 -13 15 -55 15 -30 0 -55 4 -55 9 0 6
20 24 44 41 68 50 82 95 41 135 -26 27 -70 32 -96 12z"></path>
    <path d="M9195 5344 c-4 -36 -4 -68 -1 -71 3 -4 22 2 41 13 26 14 40 16 52 8
30 -19 38 -40 25 -68 -13 -30 -61 -36 -82 -11 -16 19 -40 19 -40 1 0 -23 41
-46 80 -46 48 0 80 33 80 82 0 56 -47 85 -106 65 -18 -6 -20 -4 -16 23 4 29 6
30 58 30 47 0 54 2 54 20 0 18 -7 20 -69 20 l-69 0 -7 -66z"></path>
    <path d="M9486 5393 c-11 -38 -10 -117 1 -120 7 -3 23 3 38 13 36 24 75 6 75
-34 0 -15 -5 -33 -12 -40 -17 -17 -67 -15 -74 3 -6 16 -44 21 -44 7 0 -5 10
-18 23 -30 45 -42 127 -22 141 34 16 61 -41 116 -97 95 -25 -10 -27 -9 -27 19
0 28 1 29 58 32 43 2 57 7 57 18 0 12 -15 16 -67 18 -57 2 -67 0 -72 -15z"></path>
    <path d="M943 5209 c-15 -15 -5 -39 17 -39 22 0 32 24 17 39 -6 6 -14 11 -17
11 -3 0 -11 -5 -17 -11z"></path>
    <path d="M2417 5214 c-16 -16 -7 -44 14 -44 15 0 20 5 17 22 -3 22 -19 33 -31
22z"></path>
    <path d="M4231 5206 c-14 -17 -7 -36 14 -36 22 0 29 20 13 36 -13 13 -16 13
-27 0z"></path>
    <path d="M6017 5214 c-16 -16 -7 -44 14 -44 15 0 20 5 17 22 -3 22 -19 33 -31
22z"></path>
    <path d="M9397 5214 c-16 -16 -7 -44 14 -44 15 0 20 5 17 22 -3 22 -19 33 -31
22z"></path>
    <path d="M2386 4189 c-29 -23 -34 -60 -11 -79 14 -12 13 -16 -6 -36 -41 -44
-5 -104 62 -104 51 0 77 14 90 48 8 20 6 31 -9 52 -17 23 -18 28 -6 45 20 27
17 42 -11 70 -30 31 -73 32 -109 4z m89 -44 c0 -26 -4 -30 -31 -33 -40 -4 -60
18 -44 48 9 16 19 20 43 18 28 -3 32 -7 32 -33z m0 -78 c13 -10 16 -21 11 -41
-6 -25 -10 -27 -49 -24 -35 3 -43 7 -45 26 -7 46 42 68 83 39z"></path>
    <path d="M2554 4195 c3 -8 22 -41 42 -72 27 -43 37 -70 39 -103 1 -33 6 -46
18 -48 14 -3 17 5 17 45 0 41 7 59 45 115 25 37 45 70 45 73 0 3 -8 5 -19 5
-11 0 -31 -21 -53 -56 l-34 -55 -37 55 c-21 31 -44 56 -53 56 -10 0 -14 -6
-10 -15z"></path>
    <path d="M4160 4190 c0 -16 8 -19 59 -22 l60 -3 -40 -94 c-21 -52 -39 -96 -39
-98 0 -1 8 -3 18 -3 15 0 29 25 62 109 23 60 39 114 36 120 -4 6 -38 11 -82
11 -67 0 -74 -2 -74 -20z"></path>
    <path d="M5786 4189 c-15 -12 -26 -30 -26 -45 0 -32 26 -31 34 1 8 31 51 44
73 22 24 -24 9 -58 -45 -99 -29 -21 -54 -50 -60 -67 l-11 -31 85 0 c68 0 84 3
84 15 0 12 -14 15 -62 15 l-63 1 58 52 c47 43 57 58 57 85 0 65 -70 94 -124
51z"></path>
    <path d="M5997 4199 c-40 -24 -61 -133 -35 -182 17 -34 39 -46 80 -47 60 0 95
59 67 113 -7 12 -17 25 -23 29 -16 11 -64 10 -86 -2 -15 -8 -17 -6 -13 13 13
50 57 73 83 42 16 -19 40 -19 40 -1 0 36 -73 58 -113 35z m81 -143 c4 -35 -15
-58 -46 -54 -32 4 -47 28 -38 61 11 46 79 41 84 -7z"></path>
    <path d="M7376 4189 c-15 -12 -26 -30 -26 -45 0 -32 26 -31 34 1 11 45 87 42
86 -4 -1 -21 -16 -39 -67 -79 -22 -18 -46 -46 -52 -62 l-10 -30 85 0 c68 0 84
3 84 15 0 12 -14 15 -62 15 l-63 1 58 52 c47 43 57 58 57 85 0 65 -70 94 -124
51z"></path>
    <path d="M7587 4199 c-26 -15 -47 -70 -47 -119 0 -70 31 -109 88 -110 38 0 82
37 82 70 0 24 -18 61 -34 72 -16 11 -64 10 -86 -2 -15 -8 -17 -6 -13 13 13 50
57 73 83 42 16 -19 40 -19 40 -1 0 36 -73 58 -113 35z m81 -143 c4 -35 -15
-58 -46 -54 -32 4 -47 28 -38 61 11 46 79 41 84 -7z"></path>
    <path d="M7782 4203 c-44 -17 -60 -154 -24 -202 26 -35 90 -41 117 -11 20 22
32 110 21 154 -12 50 -67 78 -114 59z m76 -53 c15 -30 11 -112 -8 -135 -20
-24 -55 -19 -68 10 -17 37 -15 107 4 133 20 29 54 25 72 -8z"></path>
    <path d="M9166 4189 c-15 -12 -26 -30 -26 -45 0 -32 26 -31 34 1 8 31 51 44
73 22 24 -24 9 -58 -45 -99 -29 -21 -54 -50 -60 -67 l-11 -31 85 0 c68 0 84 3
84 15 0 12 -14 15 -62 15 l-63 0 58 53 c48 43 58 57 57 85 0 65 -70 94 -124
51z"></path>
    <path d="M9377 4199 c-60 -35 -61 -200 -2 -223 54 -20 125 16 125 64 0 24 -18
61 -34 72 -16 11 -64 10 -86 -2 -15 -8 -17 -6 -13 13 13 50 57 73 83 42 16
-19 40 -19 40 -1 0 36 -73 58 -113 35z m81 -143 c4 -35 -15 -58 -46 -54 -32 4
-47 28 -38 61 11 46 79 41 84 -7z"></path>
    <path d="M787 3928 c-110 -138 -112 -148 -27 -148 57 0 60 -1 60 -25 0 -16 6
-25 15 -25 9 0 15 9 15 25 0 18 5 25 20 25 11 0 20 7 20 15 0 8 -9 15 -20 15
-18 0 -20 7 -20 80 0 95 -11 102 -63 38z m30 -65 c-2 -48 -2 -48 -39 -51 -21
-2 -38 0 -38 4 0 8 69 94 75 94 3 0 3 -21 2 -47z"></path>
    <path d="M965 3959 c-4 -5 -18 -14 -31 -19 -15 -6 -24 -18 -24 -30 0 -17 3
-19 19 -10 11 5 22 10 25 10 3 0 6 -40 6 -90 0 -83 1 -90 20 -90 19 0 20 7 20
120 0 98 -3 120 -14 120 -8 0 -18 -5 -21 -11z"></path>
    <path d="M730 2934 c-79 -101 -79 -114 1 -114 33 0 58 -4 55 -9 -9 -14 4 -41
20 -41 8 0 14 10 14 25 0 18 5 25 20 25 11 0 20 7 20 15 0 8 -9 15 -20 15 -18
0 -20 7 -20 80 0 103 -11 104 -90 4z m55 -36 c-2 -42 -3 -43 -38 -46 -21 -2
-37 0 -37 3 0 11 61 85 69 85 5 0 7 -19 6 -42z"></path>
    <path d="M918 2990 c-31 -24 -43 -70 -19 -70 9 0 24 14 33 30 19 33 39 38 62
14 25 -24 20 -34 -43 -93 -33 -31 -62 -66 -66 -78 -6 -23 -5 -23 79 -23 70 0
86 3 86 15 0 12 -13 15 -55 15 -30 0 -55 3 -55 8 0 4 23 27 51 52 41 37 51 51
51 79 2 63 -71 93 -124 51z"></path>
    <path d="M2242 2994 c-24 -16 -31 -71 -12 -90 8 -8 6 -15 -5 -24 -23 -19 -19
-76 7 -94 33 -23 103 -21 128 4 25 25 26 64 2 88 -15 15 -16 20 -5 31 7 6 13
25 13 41 0 35 -31 60 -75 60 -17 0 -41 -7 -53 -16z m88 -29 c6 -8 9 -23 5 -35
-5 -17 -13 -21 -43 -18 -26 2 -38 8 -40 21 -8 40 51 64 78 32z m4 -107 c28
-40 -17 -78 -66 -54 -29 14 -34 39 -13 60 23 23 61 20 79 -6z"></path>
    <path d="M2516 2993 c-11 -38 -10 -117 1 -120 7 -3 23 3 38 13 36 24 75 6 75
-34 0 -15 -5 -33 -12 -40 -17 -17 -67 -15 -74 3 -6 16 -44 21 -44 7 0 -5 10
-18 23 -30 45 -42 127 -22 141 34 16 61 -41 116 -97 95 -26 -10 -27 -9 -27 19
0 30 0 30 61 30 52 0 60 2 57 18 -3 14 -16 18 -70 20 -57 2 -67 0 -72 -15z"></path>
    <path d="M2690 3005 c0 -3 20 -36 45 -73 38 -56 45 -75 45 -114 0 -41 3 -48
20 -48 17 0 20 7 20 51 0 42 6 59 40 109 43 64 48 80 25 80 -8 0 -32 -25 -51
-56 l-37 -57 -34 57 c-23 37 -41 56 -54 56 -10 0 -19 -2 -19 -5z"></path>
    <path d="M4020 2990 c0 -16 8 -19 59 -22 l60 -3 -40 -94 c-21 -52 -39 -96 -39
-98 0 -1 8 -3 18 -3 15 0 29 25 62 109 23 60 39 114 36 120 -4 6 -38 11 -82
11 -67 0 -74 -2 -74 -20z"></path>
    <path d="M4316 3002 c-2 -4 -8 -36 -12 -70 -7 -69 -4 -72 45 -44 23 13 35 14
48 6 30 -19 38 -40 25 -68 -13 -30 -61 -36 -82 -11 -16 19 -40 19 -40 1 0 -23
41 -46 80 -46 48 0 80 33 80 82 0 56 -47 85 -106 65 -18 -6 -20 -4 -16 23 4
29 6 30 58 30 47 0 54 2 54 20 0 18 -7 20 -64 20 -36 0 -67 -4 -70 -8z"></path>
    <path d="M5636 2984 c-29 -29 -35 -64 -11 -64 9 0 20 11 25 24 12 31 26 39 56
32 18 -5 24 -13 24 -35 0 -22 -11 -37 -47 -67 -58 -47 -72 -64 -73 -86 0 -16
10 -18 80 -18 64 0 80 3 80 15 0 12 -13 15 -55 15 -30 0 -55 4 -55 9 0 6 20
24 44 41 68 50 82 95 41 135 -32 33 -75 33 -109 -1z"></path>
    <path d="M5845 2987 c-47 -40 -52 -151 -9 -198 24 -26 87 -26 114 1 24 24 26
77 4 108 -17 25 -81 31 -102 10 -18 -18 -16 23 4 50 18 26 46 28 68 6 9 -8 23
-14 32 -12 14 3 13 7 -6 31 -27 34 -69 36 -105 4z m76 -106 c20 -16 22 -23 14
-47 -18 -51 -95 -40 -95 13 0 15 35 53 49 53 5 0 19 -9 32 -19z"></path>
    <path d="M6106 2993 c-11 -38 -10 -117 1 -120 7 -3 23 3 38 13 36 24 75 6 75
-34 0 -15 -5 -33 -12 -40 -17 -17 -67 -15 -74 3 -6 16 -44 21 -44 7 0 -5 10
-18 23 -30 45 -42 127 -22 141 34 16 61 -41 116 -97 95 -25 -10 -27 -9 -27 19
0 28 1 29 58 32 43 2 57 7 57 18 0 12 -15 16 -67 18 -57 2 -67 0 -72 -15z"></path>
    <path d="M7376 2989 c-15 -12 -26 -30 -26 -45 0 -32 26 -31 34 1 11 45 87 42
86 -4 -1 -21 -16 -39 -67 -79 -22 -18 -46 -46 -52 -62 l-10 -30 85 0 c68 0 84
3 84 15 0 12 -14 15 -62 15 l-63 1 58 52 c47 43 57 58 57 85 0 65 -70 94 -124
51z"></path>
    <path d="M7587 2999 c-26 -15 -47 -70 -47 -119 0 -70 31 -109 88 -110 38 0 82
37 82 70 0 24 -18 61 -34 72 -16 11 -64 10 -86 -2 -15 -8 -17 -6 -13 13 13 50
57 73 83 42 16 -19 40 -19 40 -1 0 36 -73 58 -113 35z m81 -143 c4 -35 -15
-58 -46 -54 -32 4 -47 28 -38 61 11 46 79 41 84 -7z"></path>
    <path d="M7756 3002 c-2 -4 -8 -36 -12 -70 -7 -69 -4 -72 45 -44 23 13 35 14
48 6 30 -19 38 -40 25 -68 -13 -30 -61 -36 -82 -11 -16 19 -40 19 -40 1 0 -23
41 -46 80 -46 48 0 80 33 80 82 0 56 -47 85 -106 65 -18 -6 -20 -4 -16 23 4
29 6 30 58 30 47 0 54 2 54 20 0 18 -7 20 -64 20 -36 0 -67 -4 -70 -8z"></path>
    <path d="M9029 2997 c-18 -13 -39 -50 -39 -66 0 -21 31 -11 40 13 12 31 26 39
56 32 18 -5 24 -13 24 -35 0 -23 -10 -38 -49 -68 -45 -35 -71 -69 -71 -93 0
-6 36 -10 80 -10 64 0 80 3 80 15 0 12 -13 15 -55 15 -30 0 -55 4 -55 9 0 6
20 24 44 41 68 50 82 95 41 135 -26 27 -70 32 -96 12z"></path>
    <path d="M9227 2990 c-47 -37 -54 -154 -11 -201 24 -26 87 -26 114 1 24 24 26
77 4 108 -17 25 -81 31 -102 10 -18 -18 -16 23 4 50 18 26 46 28 68 6 9 -8 24
-14 34 -12 15 3 13 7 -10 31 -32 32 -66 34 -101 7z m74 -109 c20 -16 22 -23
14 -47 -18 -51 -95 -40 -95 13 0 15 35 53 49 53 5 0 19 -9 32 -19z"></path>
    <path d="M9486 2993 c-11 -38 -10 -117 1 -120 7 -3 23 3 38 13 36 24 75 6 75
-34 0 -15 -5 -33 -12 -40 -17 -17 -67 -15 -74 3 -6 16 -44 21 -44 7 0 -5 10
-18 23 -30 45 -42 127 -22 141 34 16 61 -41 116 -97 95 -25 -10 -27 -9 -27 19
0 28 1 29 58 32 43 2 57 7 57 18 0 12 -15 16 -67 18 -57 2 -67 0 -72 -15z"></path>
    <path d="M2427 2814 c-16 -16 -7 -44 14 -44 15 0 20 5 17 22 -3 22 -19 33 -31
22z"></path>
    <path d="M4221 2806 c-14 -17 -7 -36 14 -36 22 0 29 20 13 36 -13 13 -16 13
-27 0z"></path>
    <path d="M6017 2814 c-16 -16 -7 -44 14 -44 15 0 20 5 17 22 -3 22 -19 33 -31
22z"></path>
    <path d="M9397 2814 c-16 -16 -7 -44 14 -44 15 0 20 5 17 22 -3 22 -19 33 -31
22z"></path>
    <path d="M587 1736 c-31 -41 -57 -84 -57 -95 0 -19 6 -21 55 -21 52 0 55 -1
55 -25 0 -18 5 -25 20 -25 15 0 20 7 20 25 0 16 6 25 15 25 8 0 15 7 15 15 0
8 -7 15 -15 15 -11 0 -15 18 -17 77 -4 103 -17 105 -91 9z m50 -83 c-3 -2 -21
-3 -40 -1 l-36 3 37 50 37 49 3 -48 c2 -26 1 -50 -1 -53z"></path>
    <path d="M766 1784 c-31 -32 -35 -64 -7 -64 12 0 21 9 25 24 12 46 76 41 76
-6 0 -18 -7 -26 -84 -96 -20 -18 -36 -41 -36 -52 0 -18 7 -20 80 -20 64 0 80
3 80 15 0 12 -13 15 -55 15 -30 0 -55 4 -55 9 0 4 18 21 41 37 75 52 91 105
43 143 -36 29 -76 27 -108 -5z"></path>
    <path d="M1036 1798 c-3 -7 -7 -39 -9 -70 -6 -64 0 -69 47 -44 36 18 65 10 73
-22 8 -34 -8 -56 -45 -60 -23 -2 -34 2 -42 17 -12 23 -40 28 -40 8 0 -7 9 -23
20 -35 30 -32 93 -30 125 3 61 60 0 155 -80 125 -25 -9 -26 -8 -23 17 3 27 6
28 61 31 49 3 57 6 57 22 0 18 -7 20 -70 20 -48 0 -72 -4 -74 -12z"></path>
    <path d="M2386 1788 c-37 -34 -39 -85 -4 -118 26 -24 56 -26 86 -4 20 14 22
14 22 -3 0 -50 -61 -82 -90 -48 -13 16 -40 21 -40 7 0 -4 7 -18 16 -30 15 -22
62 -30 99 -16 42 16 61 135 30 193 -23 45 -79 54 -119 19z m82 -20 c7 -7 12
-24 12 -38 0 -32 -17 -50 -47 -50 -38 0 -56 55 -27 84 18 19 45 21 62 4z"></path>
    <path d="M2554 1795 c3 -8 22 -41 42 -72 27 -43 37 -70 39 -103 1 -33 6 -46
18 -48 14 -3 17 5 17 45 0 41 7 59 45 115 25 37 45 70 45 73 0 3 -8 5 -19 5
-11 0 -31 -21 -53 -56 l-34 -55 -37 55 c-21 31 -44 56 -53 56 -10 0 -14 -6
-10 -15z"></path>
    <path d="M4193 1795 c-27 -19 -34 -48 -18 -79 11 -21 11 -27 -1 -37 -23 -19
-18 -75 8 -93 33 -23 103 -21 128 4 25 25 26 64 2 88 -15 15 -16 20 -5 31 21
19 16 68 -9 85 -28 20 -77 20 -105 1z m87 -30 c6 -8 9 -23 5 -35 -5 -17 -13
-21 -43 -18 -26 2 -38 8 -40 21 -8 40 51 64 78 32z m4 -107 c28 -40 -17 -78
-66 -54 -29 14 -34 39 -13 60 23 23 61 20 79 -6z"></path>
    <path d="M5796 1789 c-15 -12 -26 -30 -26 -45 0 -32 26 -31 34 1 8 31 51 44
73 22 24 -24 9 -58 -45 -99 -29 -21 -54 -50 -60 -67 l-11 -31 85 0 c68 0 84 3
84 15 0 12 -14 15 -62 15 l-63 0 58 53 c48 43 58 57 57 85 0 65 -70 94 -124
51z"></path>
    <path d="M5950 1790 c0 -16 8 -19 59 -22 l60 -3 -40 -94 c-21 -52 -39 -96 -39
-98 0 -1 8 -3 18 -3 15 0 29 25 62 109 23 60 39 114 36 120 -4 6 -38 11 -82
11 -67 0 -74 -2 -74 -20z"></path>
    <path d="M7386 1789 c-15 -12 -26 -30 -26 -45 0 -32 26 -31 34 1 8 31 51 44
73 22 24 -24 9 -58 -45 -99 -29 -21 -54 -50 -60 -67 l-11 -31 85 0 c68 0 84 3
84 15 0 12 -14 15 -62 15 l-63 1 58 52 c47 43 57 58 57 85 0 65 -70 94 -124
51z"></path>
    <path d="M7540 1790 c0 -16 8 -19 59 -22 l60 -3 -40 -94 c-21 -52 -39 -96 -39
-98 0 -1 8 -3 18 -3 15 0 29 25 62 109 23 60 39 114 36 120 -4 6 -38 11 -82
11 -67 0 -74 -2 -74 -20z"></path>
    <path d="M7777 1799 c-42 -25 -59 -110 -36 -178 13 -36 35 -51 76 -51 38 0 50
9 68 53 45 107 -26 224 -108 176z m65 -36 c13 -12 18 -30 18 -70 0 -66 -13
-93 -45 -93 -31 0 -47 30 -47 90 0 80 32 112 74 73z"></path>
    <path d="M9176 1789 c-15 -12 -26 -30 -26 -45 0 -32 26 -31 34 1 11 45 87 42
86 -4 -1 -21 -16 -39 -67 -79 -22 -18 -46 -46 -52 -62 l-10 -30 85 0 c68 0 84
3 84 15 0 12 -14 15 -62 15 l-63 0 58 53 c48 43 58 57 57 85 0 65 -70 94 -124
51z"></path>
    <path d="M9330 1790 c0 -16 8 -19 59 -22 l60 -3 -40 -94 c-21 -52 -39 -96 -39
-98 0 -1 8 -3 18 -3 15 0 29 25 62 109 23 60 39 114 36 120 -4 6 -38 11 -82
11 -67 0 -74 -2 -74 -20z"></path>
    <path d="M943 1609 c-15 -15 -5 -39 17 -39 22 0 32 24 17 39 -6 6 -14 11 -17
11 -3 0 -11 -5 -17 -11z"></path>
    <path d="M730 534 c-79 -101 -79 -114 1 -114 33 0 58 -4 55 -9 -9 -14 4 -41
20 -41 8 0 14 10 14 25 0 18 5 25 20 25 11 0 20 7 20 15 0 8 -9 15 -20 15 -18
0 -20 7 -20 80 0 103 -11 104 -90 4z m55 -36 c-2 -42 -3 -43 -38 -46 -21 -2
-37 0 -37 3 0 11 61 85 69 85 5 0 7 -19 6 -42z"></path>
    <path d="M919 597 c-9 -7 -21 -22 -28 -34 -10 -20 -9 -23 6 -23 10 0 26 9 36
20 9 11 23 20 31 20 15 0 46 -26 46 -39 0 -13 -24 -31 -42 -31 -29 0 -21 -25
12 -37 19 -7 30 -18 30 -30 0 -46 -59 -59 -86 -18 -18 27 -44 34 -44 11 0 -7
9 -25 21 -40 16 -21 29 -26 63 -26 71 0 111 65 68 108 -16 16 -17 20 -4 28 22
15 18 65 -8 86 -25 21 -77 23 -101 5z"></path>
    <path d="M2235 585 c-63 -62 9 -166 86 -125 15 9 19 7 19 -5 0 -9 -5 -25 -10
-36 -13 -23 -68 -26 -76 -4 -8 19 -34 20 -34 1 0 -26 30 -46 70 -46 48 0 76
31 86 95 16 112 -73 189 -141 120z m89 -21 c29 -29 11 -84 -27 -84 -30 0 -47
18 -47 50 0 47 42 66 74 34z"></path>
    <path d="M2516 593 c-11 -38 -10 -117 1 -120 7 -3 23 3 38 13 36 24 75 6 75
-34 0 -15 -5 -33 -12 -40 -17 -17 -67 -15 -74 3 -6 16 -44 21 -44 7 0 -5 10
-18 23 -30 45 -42 127 -22 141 34 16 61 -41 116 -97 95 -26 -10 -27 -9 -27 19
0 30 0 30 61 30 52 0 60 2 57 18 -3 14 -16 18 -70 20 -57 2 -67 0 -72 -15z"></path>
    <path d="M2690 605 c0 -3 20 -36 45 -73 38 -56 45 -75 45 -114 0 -41 3 -48 20
-48 17 0 20 7 20 51 0 42 6 59 40 109 43 64 48 80 25 80 -8 0 -32 -25 -51 -56
l-37 -57 -34 57 c-23 37 -41 56 -54 56 -10 0 -19 -2 -19 -5z"></path>
    <path d="M4046 589 c-29 -23 -34 -60 -11 -79 14 -12 13 -16 -6 -36 -24 -25
-21 -61 7 -88 22 -23 106 -21 126 2 27 30 30 57 9 83 -17 22 -17 27 -5 44 20
27 18 42 -11 70 -30 31 -73 32 -109 4z m89 -44 c0 -26 -4 -30 -31 -33 -40 -4
-60 18 -44 48 9 16 19 20 43 18 28 -3 32 -7 32 -33z m0 -78 c25 -19 14 -63
-18 -69 -37 -7 -67 8 -67 35 0 44 46 62 85 34z"></path>
    <path d="M4316 593 c-11 -38 -10 -117 1 -120 7 -3 23 3 38 13 36 24 75 6 75
-34 0 -15 -5 -33 -12 -40 -17 -17 -67 -15 -74 3 -6 16 -44 21 -44 7 0 -5 10
-18 23 -30 45 -42 127 -22 141 34 16 61 -41 116 -97 95 -25 -10 -27 -9 -27 19
0 28 1 29 58 32 43 2 57 7 57 18 0 12 -15 16 -67 18 -57 2 -67 0 -72 -15z"></path>
    <path d="M5659 597 c-18 -13 -39 -50 -39 -66 0 -21 31 -11 40 13 12 31 26 39
56 32 18 -5 24 -13 24 -35 0 -22 -11 -37 -47 -67 -58 -47 -72 -64 -73 -86 0
-16 10 -18 80 -18 64 0 80 3 80 15 0 12 -13 15 -55 15 -30 0 -55 4 -55 9 0 6
20 24 44 41 68 50 82 95 41 135 -26 27 -70 32 -96 12z"></path>
    <path d="M5810 590 c0 -18 7 -20 56 -20 65 0 65 8 10 -118 -34 -79 -35 -83
-15 -80 17 2 30 24 60 98 21 52 38 105 38 118 1 21 -3 22 -74 22 -68 0 -75 -2
-75 -20z"></path>
    <path d="M6095 544 c-4 -36 -4 -68 -1 -71 3 -4 22 2 41 13 26 14 40 16 52 8
30 -19 38 -40 25 -68 -13 -30 -61 -36 -82 -11 -16 19 -40 19 -40 1 0 -23 41
-46 80 -46 48 0 80 33 80 82 0 56 -47 85 -106 65 -18 -6 -20 -4 -16 23 4 29 6
30 58 30 47 0 54 2 54 20 0 18 -7 20 -69 20 l-69 0 -7 -66z"></path>
    <path d="M7386 589 c-15 -12 -26 -30 -26 -45 0 -32 26 -31 34 1 8 31 51 44 73
22 24 -24 9 -58 -45 -99 -29 -21 -54 -50 -60 -67 l-11 -31 85 0 c68 0 84 3 84
15 0 12 -14 15 -62 15 l-63 1 58 52 c47 43 57 58 57 85 0 65 -70 94 -124 51z"></path>
    <path d="M7540 590 c0 -16 8 -19 59 -22 l60 -3 -40 -94 c-21 -52 -39 -96 -39
-98 0 -1 8 -3 18 -3 15 0 29 25 62 109 23 60 39 114 36 120 -4 6 -38 11 -82
11 -67 0 -74 -2 -74 -20z"></path>
    <path d="M7746 593 c-11 -38 -10 -117 1 -120 7 -3 23 3 38 13 36 24 75 6 75
-34 0 -15 -5 -33 -12 -40 -17 -17 -67 -15 -74 3 -6 16 -44 21 -44 7 0 -5 10
-18 23 -30 45 -42 127 -22 141 34 16 61 -41 116 -97 95 -25 -10 -27 -9 -27 19
0 28 1 29 58 32 43 2 57 7 57 18 0 12 -15 16 -67 18 -57 2 -67 0 -72 -15z"></path>
    <path d="M9026 584 c-29 -29 -35 -64 -11 -64 9 0 20 11 25 24 12 31 26 39 56
32 18 -5 24 -13 24 -35 0 -23 -10 -38 -49 -68 -45 -35 -71 -69 -71 -93 0 -6
36 -10 80 -10 64 0 80 3 80 15 0 12 -13 15 -55 15 -30 0 -55 4 -55 9 0 6 20
24 44 41 68 50 82 95 41 135 -32 33 -75 33 -109 -1z"></path>
    <path d="M9190 590 c0 -18 7 -20 56 -20 65 0 65 8 10 -118 -34 -79 -35 -83
-15 -80 17 2 30 24 60 98 21 52 38 105 38 118 1 21 -3 22 -74 22 -68 0 -75 -2
-75 -20z"></path>
    <path d="M9475 544 c-4 -36 -4 -68 -1 -71 3 -4 22 2 41 13 26 14 40 16 52 8
30 -19 38 -40 25 -68 -13 -30 -61 -36 -82 -11 -16 19 -40 19 -40 1 0 -23 41
-46 80 -46 48 0 80 33 80 82 0 56 -47 85 -106 65 -18 -6 -20 -4 -16 23 4 29 6
30 58 30 47 0 54 2 54 20 0 18 -7 20 -69 20 l-69 0 -7 -66z"></path>
    <path d="M2427 414 c-16 -16 -7 -44 14 -44 15 0 20 5 17 22 -3 22 -19 33 -31
22z"></path>
    <path d="M4231 406 c-14 -17 -7 -36 14 -36 22 0 29 20 13 36 -13 13 -16 13
-27 0z"></path>
    <path d="M6011 406 c-14 -17 -7 -36 14 -36 22 0 29 20 13 36 -13 13 -16 13
-27 0z"></path>
    <path d="M9391 406 c-14 -17 -7 -36 14 -36 22 0 29 20 13 36 -13 13 -16 13
-27 0z"></path>
</g>
</svg>