<svg id="Слой_1" data-name="Слой 1" xmlns="http://www.w3.org/2000/svg" viewBox="0 0 1313.33 200.01"><defs><style>.cls-1{fill:#21a049;}</style></defs><polygon class="cls-1" points="1055.93 39.93 1055.93 161.26 1082.11 161.26 1082.11 111.69 1137.91 111.69 1137.91 161.26 1164.09 161.26 1164.09 39.93 1137.91 39.93 1137.91 89.68 1082.11 89.68 1082.11 39.93 1055.93 39.93"/><polygon class="cls-1" points="1223.04 112.33 1239.32 112.33 1279.5 161.26 1313.34 161.26 1259.78 98.52 1306.58 39.94 1276.49 39.94 1237.49 91.93 1223.04 91.93 1223.04 39.94 1196.85 39.94 1196.85 161.26 1223.04 161.26 1223.04 112.33"/><path class="cls-1" d="M1314.55,599.67h27.56L1291,478.35h-26.7l-52.34,121.32h26.52L1249,575.24h55.64ZM1256.83,555l20.28-48.71L1296.17,555Z" transform="translate(-303.62 -438.42)"/><path class="cls-1" d="M1157.21,525.64h-31.86V498.55h68.47l.06-20.2h-94.71V599.67h54.66c30.66,0,48.25-13.89,48.25-38.11,0-23.16-15.94-35.92-44.87-35.92m-4.56,53.83h-27.3V545.84h27.3c16.62,0,24.36,5.63,24.36,16.82,0,11.43-8.2,16.81-24.36,16.81" transform="translate(-303.62 -438.42)"/><polygon class="cls-1" points="587.24 60.13 614.64 39.93 522.91 39.93 522.91 161.26 614.64 161.26 614.64 141.06 549.09 141.06 549.09 110 605.01 110 605.01 89.8 549.09 89.8 549.09 60.13 587.24 60.13"/><path class="cls-1" d="M757.29,525.64H725.43V498.55h50.85l27.41-20.2H699.25V599.68h54.66c30.66,0,48.24-13.9,48.24-38.12,0-23.16-15.93-35.92-44.86-35.92m-4.56,53.83h-27.3V545.84h27.3c16.61,0,24.35,5.63,24.35,16.82,0,11.43-8.19,16.81-24.35,16.81" transform="translate(-303.62 -438.42)"/><path class="cls-1" d="M992.58,478.35H942.64V599.67h26.17V565.31h23.77c31.87,0,51.67-16.76,51.67-43.54s-19.8-43.42-51.67-43.42M992,545.11H968.81V498.55H992c16.78,0,26,8.27,26,23.28s-9.23,23.28-26,23.28" transform="translate(-303.62 -438.42)"/><path class="cls-1" d="M654.31,573.41a46.89,46.89,0,0,1-22.6,5.66c-23.6,0-40.73-16.85-40.73-40.06S608.11,499,631.71,499a39.88,39.88,0,0,1,23.81,7.46l18.78-13.84-1.24-1.09c-11-9.63-25.61-14.72-42.36-14.72-18.17,0-34.66,6.12-46.43,17.25s-18.36,26.93-18.36,44.33,6.5,33.46,18.3,45,28.28,17.94,46.32,17.94c18.87,0,35.35-6.58,46.53-18.55l-16.95-12.49Z" transform="translate(-303.62 -438.42)"/><path class="cls-1" d="M503.63,538.42a100.68,100.68,0,0,0-1.6-17.91L480.5,536.37c0,.68,0,1.37,0,2A77,77,0,1,1,447,474.94l19.45-14.34a100,100,0,1,0,37.2,77.82Z" transform="translate(-303.62 -438.42)"/><path class="cls-1" d="M482.76,477.28a100.57,100.57,0,0,1,12,19.88l-91.13,67.16-38.07-23.87V511.74l38.07,23.86Z" transform="translate(-303.62 -438.42)"/></svg>